<?plantuml 1.2026.2?><svg xmlns="http://www.w3.org/2000/svg" xmlns:xlink="http://www.w3.org/1999/xlink" contentStyleType="text/css" data-diagram-type="ACTIVITY" height="986px" preserveAspectRatio="none" style="width:473px;height:986px;background:#FFFFFF;" version="1.1" viewBox="0 0 473 986" width="473px" zoomAndPan="magnify"><defs/><g><ellipse cx="240.3604" cy="20" fill="#222222" rx="10" ry="10" style="stroke:#222222;stroke-width:1;"/><rect fill="#F1F1F1" height="33.9688" rx="12.5" ry="12.5" style="stroke:#181818;stroke-width:0.5;" width="174.2246" x="153.248" y="50"/><text fill="#000000" font-family="sans-serif" font-size="12" lengthAdjust="spacing" textLength="154.2246" x="163.248" y="71.1387">&#1054;&#1090;&#1082;&#1088;&#1099;&#1090;&#1100; &#1092;&#1086;&#1088;&#1084;&#1091; &#1088;&#1072;&#1089;&#1095;&#1077;&#1090;&#1072;</text><rect fill="#F1F1F1" height="33.9688" rx="12.5" ry="12.5" style="stroke:#181818;stroke-width:0.5;" width="187.3848" x="146.668" y="103.9688"/><text fill="#000000" font-family="sans-serif" font-size="12" lengthAdjust="spacing" textLength="167.3848" x="156.668" y="125.1074">&#1042;&#1074;&#1077;&#1089;&#1090;&#1080; &#1087;&#1072;&#1088;&#1072;&#1084;&#1077;&#1090;&#1088;&#1099; &#1089;&#1076;&#1077;&#1083;&#1082;&#1080;</text><rect fill="#F1F1F1" height="33.9688" rx="12.5" ry="12.5" style="stroke:#181818;stroke-width:0.5;" width="204.2715" x="138.2246" y="213.6479"/><text fill="#000000" font-family="sans-serif" font-size="12" lengthAdjust="spacing" textLength="184.2715" x="148.2246" y="234.7866">&#1055;&#1086;&#1082;&#1072;&#1079;&#1072;&#1090;&#1100; &#1086;&#1096;&#1080;&#1073;&#1082;&#1080; &#1074;&#1072;&#1083;&#1080;&#1076;&#1072;&#1094;&#1080;&#1080;</text><rect fill="#F1F1F1" height="33.9688" rx="12.5" ry="12.5" style="stroke:#181818;stroke-width:0.5;" width="139.3379" x="170.6914" y="276.7144"/><text fill="#000000" font-family="sans-serif" font-size="12" lengthAdjust="spacing" textLength="119.3379" x="180.6914" y="297.853">&#1048;&#1089;&#1087;&#1088;&#1072;&#1074;&#1080;&#1090;&#1100; &#1076;&#1072;&#1085;&#1085;&#1099;&#1077;</text><polygon fill="#F1F1F1" points="181.5898,157.9375,299.1309,157.9375,311.1309,169.9375,299.1309,181.9375,181.5898,181.9375,169.5898,169.9375,181.5898,157.9375" style="stroke:#181818;stroke-width:0.5;"/><text fill="#000000" font-family="sans-serif" font-size="11" lengthAdjust="spacing" textLength="20.3672" x="244.3604" y="192.1479">&#1085;&#1077;&#1090;</text><text fill="#000000" font-family="sans-serif" font-size="11" lengthAdjust="spacing" textLength="117.541" x="181.5898" y="173.7456">&#1044;&#1072;&#1085;&#1085;&#1099;&#1077; &#1082;&#1086;&#1088;&#1088;&#1077;&#1082;&#1090;&#1085;&#1099;?</text><text fill="#000000" font-family="sans-serif" font-size="11" lengthAdjust="spacing" textLength="14.3462" x="155.2437" y="167.3433">&#1076;&#1072;</text><rect fill="#F1F1F1" height="33.9688" rx="12.5" ry="12.5" style="stroke:#181818;stroke-width:0.5;" width="249.0898" x="115.8154" y="352.6831"/><text fill="#000000" font-family="sans-serif" font-size="12" lengthAdjust="spacing" textLength="229.0898" x="125.8154" y="373.8218">&#1055;&#1086;&#1083;&#1091;&#1095;&#1080;&#1090;&#1100; &#1087;&#1077;&#1088;&#1077;&#1084;&#1077;&#1085;&#1085;&#1099;&#1077; &#1080; &#1085;&#1086;&#1088;&#1084;&#1072;&#1090;&#1080;&#1074;&#1099;</text><rect fill="#F1F1F1" height="33.9688" rx="12.5" ry="12.5" style="stroke:#181818;stroke-width:0.5;" width="208.0391" x="136.3408" y="406.6519"/><text fill="#000000" font-family="sans-serif" font-size="12" lengthAdjust="spacing" textLength="188.0391" x="146.3408" y="427.7905">&#1054;&#1087;&#1088;&#1077;&#1076;&#1077;&#1083;&#1080;&#1090;&#1100; &#1090;&#1080;&#1087; &#1082;&#1086;&#1085;&#1090;&#1088;&#1072;&#1075;&#1077;&#1085;&#1090;&#1072;</text><rect fill="#F1F1F1" height="33.9688" rx="12.5" ry="12.5" style="stroke:#181818;stroke-width:0.5;" width="199.291" x="140.7148" y="460.6206"/><text fill="#000000" font-family="sans-serif" font-size="12" lengthAdjust="spacing" textLength="179.291" x="150.7148" y="481.7593">&#1042;&#1099;&#1073;&#1088;&#1072;&#1090;&#1100; &#1089;&#1090;&#1088;&#1072;&#1090;&#1077;&#1075;&#1080;&#1102; &#1088;&#1072;&#1089;&#1095;&#1077;&#1090;&#1072;</text><rect fill="#F1F1F1" height="33.9688" rx="12.5" ry="12.5" style="stroke:#181818;stroke-width:0.5;" width="137.1172" x="171.8018" y="514.5894"/><text fill="#000000" font-family="sans-serif" font-size="12" lengthAdjust="spacing" textLength="117.1172" x="181.8018" y="535.728">&#1042;&#1099;&#1087;&#1086;&#1083;&#1085;&#1080;&#1090;&#1100; &#1088;&#1072;&#1089;&#1095;&#1077;&#1090;</text><rect fill="#F1F1F1" height="33.9688" rx="12.5" ry="12.5" style="stroke:#181818;stroke-width:0.5;" width="147.1367" x="166.792" y="568.5581"/><text fill="#000000" font-family="sans-serif" font-size="12" lengthAdjust="spacing" textLength="127.1367" x="176.792" y="589.6968">&#1055;&#1086;&#1082;&#1072;&#1079;&#1072;&#1090;&#1100; &#1088;&#1077;&#1079;&#1091;&#1083;&#1100;&#1090;&#1072;&#1090;</text><polygon fill="#F1F1F1" points="41.2024,622.5269,178.4714,622.5269,190.4714,634.5269,178.4714,646.5269,41.2024,646.5269,29.2024,634.5269,41.2024,622.5269" style="stroke:#181818;stroke-width:0.5;"/><text fill="#000000" font-family="sans-serif" font-size="11" lengthAdjust="spacing" textLength="55.4888" x="113.8369" y="656.7373">&#1063;&#1077;&#1088;&#1085;&#1086;&#1074;&#1080;&#1082;</text><text fill="#000000" font-family="sans-serif" font-size="11" lengthAdjust="spacing" textLength="137.269" x="41.2024" y="638.335">&#1044;&#1072;&#1083;&#1100;&#1085;&#1077;&#1081;&#1096;&#1077;&#1077; &#1076;&#1077;&#1081;&#1089;&#1090;&#1074;&#1080;&#1077;?</text><rect fill="#F1F1F1" height="33.9688" rx="12.5" ry="12.5" style="stroke:#181818;stroke-width:0.5;" width="197.6738" x="11" y="679.3315"/><text fill="#000000" font-family="sans-serif" font-size="12" lengthAdjust="spacing" textLength="177.6738" x="21" y="700.4702">&#1057;&#1086;&#1093;&#1088;&#1072;&#1085;&#1080;&#1090;&#1100; &#1095;&#1077;&#1088;&#1085;&#1086;&#1074;&#1080;&#1082; &#1086;&#1090;&#1095;&#1077;&#1090;&#1072;</text><polygon fill="#F1F1F1" points="277.9468,622.5269,370.4478,622.5269,382.4478,634.5269,370.4478,646.5269,277.9468,646.5269,265.9468,634.5269,277.9468,622.5269" style="stroke:#181818;stroke-width:0.5;"/><text fill="#000000" font-family="sans-serif" font-size="11" lengthAdjust="spacing" textLength="92.501" x="277.9468" y="638.335">&#1048;&#1090;&#1086;&#1075;&#1086;&#1074;&#1099;&#1081; &#1086;&#1090;&#1095;&#1077;&#1090;</text><text fill="#000000" font-family="sans-serif" font-size="11" lengthAdjust="spacing" textLength="44.0645" x="382.4478" y="631.9326">&#1054;&#1090;&#1084;&#1077;&#1085;&#1072;</text><rect fill="#F1F1F1" height="33.9688" rx="12.5" ry="12.5" style="stroke:#181818;stroke-width:0.5;" width="191.0469" x="228.6738" y="666.5269"/><text fill="#000000" font-family="sans-serif" font-size="12" lengthAdjust="spacing" textLength="171.0469" x="238.6738" y="687.6655">&#1057;&#1086;&#1093;&#1088;&#1072;&#1085;&#1080;&#1090;&#1100; &#1080;&#1090;&#1086;&#1075;&#1086;&#1074;&#1099;&#1081; &#1086;&#1090;&#1095;&#1077;&#1090;</text><ellipse cx="447.5122" cy="692.9136" fill="none" rx="11" ry="11" style="stroke:#222222;stroke-width:1;"/><ellipse cx="447.5122" cy="692.9136" fill="#222222" rx="6" ry="6" style="stroke:#222222;stroke-width:1;"/><rect fill="#F1F1F1" height="33.9688" rx="12.5" ry="12.5" style="stroke:#181818;stroke-width:0.5;" width="184.6426" x="148.0391" y="753.3003"/><text fill="#000000" font-family="sans-serif" font-size="12" lengthAdjust="spacing" textLength="164.6426" x="158.0391" y="774.439">&#1055;&#1086;&#1082;&#1072;&#1079;&#1072;&#1090;&#1100; &#1087;&#1086;&#1076;&#1090;&#1074;&#1077;&#1088;&#1078;&#1076;&#1077;&#1085;&#1080;&#1077;</text><rect fill="#F1F1F1" height="33.9688" rx="12.5" ry="12.5" style="stroke:#181818;stroke-width:0.5;" width="186.9219" x="146.8994" y="855.6714"/><text fill="#000000" font-family="sans-serif" font-size="12" lengthAdjust="spacing" textLength="166.9219" x="156.8994" y="876.8101">&#1054;&#1090;&#1082;&#1088;&#1099;&#1090;&#1100; &#1080;&#1089;&#1090;&#1086;&#1088;&#1080;&#1102; &#1086;&#1090;&#1095;&#1077;&#1090;&#1086;&#1074;</text><polygon fill="#F1F1F1" points="185.696,807.269,295.0247,807.269,307.0247,819.269,295.0247,831.269,185.696,831.269,173.696,819.269,185.696,807.269" style="stroke:#181818;stroke-width:0.5;"/><text fill="#000000" font-family="sans-serif" font-size="11" lengthAdjust="spacing" textLength="15.3345" x="244.3604" y="841.4795">&#1044;&#1072;</text><text fill="#000000" font-family="sans-serif" font-size="11" lengthAdjust="spacing" textLength="109.3286" x="185.696" y="823.0771">&#1054;&#1090;&#1082;&#1088;&#1099;&#1090;&#1100; &#1080;&#1089;&#1090;&#1086;&#1088;&#1080;&#1102;?</text><polygon fill="#F1F1F1" points="240.3604,909.6401,252.3604,921.6401,240.3604,933.6401,228.3604,921.6401,240.3604,909.6401" style="stroke:#181818;stroke-width:0.5;"/><ellipse cx="240.3604" cy="964.6401" fill="none" rx="11" ry="11" style="stroke:#222222;stroke-width:1;"/><ellipse cx="240.3604" cy="964.6401" fill="#222222" rx="6" ry="6" style="stroke:#222222;stroke-width:1;"/><line style="stroke:#181818;stroke-width:1;" x1="240.3604" x2="240.3604" y1="30" y2="50"/><polygon fill="#181818" points="236.3604,40,240.3604,50,244.3604,40,240.3604,44" style="stroke:#181818;stroke-width:1;"/><line style="stroke:#181818;stroke-width:1;" x1="240.3604" x2="240.3604" y1="83.9688" y2="103.9688"/><polygon fill="#181818" points="236.3604,93.9688,240.3604,103.9688,244.3604,93.9688,240.3604,97.9688" style="stroke:#181818;stroke-width:1;"/><line style="stroke:#181818;stroke-width:1;" x1="240.3604" x2="240.3604" y1="247.6167" y2="276.7144"/><polygon fill="#181818" points="236.3604,266.7144,240.3604,276.7144,244.3604,266.7144,240.3604,270.7144" style="stroke:#181818;stroke-width:1;"/><line style="stroke:#181818;stroke-width:1;" x1="240.3604" x2="240.3604" y1="181.9375" y2="213.6479"/><polygon fill="#181818" points="236.3604,203.6479,240.3604,213.6479,244.3604,203.6479,240.3604,207.6479" style="stroke:#181818;stroke-width:1;"/><line style="stroke:#181818;stroke-width:1;" x1="240.3604" x2="240.3604" y1="310.6831" y2="320.6831"/><line style="stroke:#181818;stroke-width:1;" x1="240.3604" x2="354.4961" y1="320.6831" y2="320.6831"/><polygon fill="#181818" points="350.4961,256.7144,354.4961,246.7144,358.4961,256.7144,354.4961,252.7144" style="stroke:#181818;stroke-width:1;"/><line style="stroke:#181818;stroke-width:1;" x1="354.4961" x2="354.4961" y1="169.9375" y2="320.6831"/><line style="stroke:#181818;stroke-width:1;" x1="354.4961" x2="311.1309" y1="169.9375" y2="169.9375"/><polygon fill="#181818" points="321.1309,165.9375,311.1309,169.9375,321.1309,173.9375,317.1309,169.9375" style="stroke:#181818;stroke-width:1;"/><line style="stroke:#181818;stroke-width:1;" x1="169.5898" x2="126.2246" y1="169.9375" y2="169.9375"/><polygon fill="#181818" points="122.2246,242.7144,126.2246,252.7144,130.2246,242.7144,126.2246,246.7144" style="stroke:#181818;stroke-width:1;"/><line style="stroke:#181818;stroke-width:1;" x1="126.2246" x2="126.2246" y1="169.9375" y2="332.6831"/><line style="stroke:#181818;stroke-width:1;" x1="126.2246" x2="240.3604" y1="332.6831" y2="332.6831"/><line style="stroke:#181818;stroke-width:1;" x1="240.3604" x2="240.3604" y1="332.6831" y2="352.6831"/><polygon fill="#181818" points="236.3604,342.6831,240.3604,352.6831,244.3604,342.6831,240.3604,346.6831" style="stroke:#181818;stroke-width:1;"/><line style="stroke:#181818;stroke-width:1;" x1="240.3604" x2="240.3604" y1="137.9375" y2="157.9375"/><polygon fill="#181818" points="236.3604,147.9375,240.3604,157.9375,244.3604,147.9375,240.3604,151.9375" style="stroke:#181818;stroke-width:1;"/><line style="stroke:#181818;stroke-width:1;" x1="240.3604" x2="240.3604" y1="386.6519" y2="406.6519"/><polygon fill="#181818" points="236.3604,396.6519,240.3604,406.6519,244.3604,396.6519,240.3604,400.6519" style="stroke:#181818;stroke-width:1;"/><line style="stroke:#181818;stroke-width:1;" x1="240.3604" x2="240.3604" y1="440.6206" y2="460.6206"/><polygon fill="#181818" points="236.3604,450.6206,240.3604,460.6206,244.3604,450.6206,240.3604,454.6206" style="stroke:#181818;stroke-width:1;"/><line style="stroke:#181818;stroke-width:1;" x1="240.3604" x2="240.3604" y1="494.5894" y2="514.5894"/><polygon fill="#181818" points="236.3604,504.5894,240.3604,514.5894,244.3604,504.5894,240.3604,508.5894" style="stroke:#181818;stroke-width:1;"/><line style="stroke:#181818;stroke-width:1;" x1="240.3604" x2="240.3604" y1="548.5581" y2="568.5581"/><polygon fill="#181818" points="236.3604,558.5581,240.3604,568.5581,244.3604,558.5581,240.3604,562.5581" style="stroke:#181818;stroke-width:1;"/><line style="stroke:#181818;stroke-width:1;" x1="109.8369" x2="109.8369" y1="646.5269" y2="679.3315"/><polygon fill="#181818" points="105.8369,669.3315,109.8369,679.3315,113.8369,669.3315,109.8369,673.3315" style="stroke:#181818;stroke-width:1;"/><line style="stroke:#181818;stroke-width:1;" x1="109.8369" x2="109.8369" y1="713.3003" y2="733.3003"/><polygon fill="#181818" points="105.8369,723.3003,109.8369,733.3003,113.8369,723.3003,109.8369,727.3003" style="stroke:#181818;stroke-width:1;"/><line style="stroke:#181818;stroke-width:1;" x1="324.1973" x2="324.1973" y1="646.5269" y2="666.5269"/><polygon fill="#181818" points="320.1973,656.5269,324.1973,666.5269,328.1973,656.5269,324.1973,660.5269" style="stroke:#181818;stroke-width:1;"/><line style="stroke:#181818;stroke-width:1;" x1="324.1973" x2="324.1973" y1="700.4956" y2="733.3003"/><polygon fill="#181818" points="320.1973,723.3003,324.1973,733.3003,328.1973,723.3003,324.1973,727.3003" style="stroke:#181818;stroke-width:1;"/><line style="stroke:#181818;stroke-width:1;" x1="190.4714" x2="265.9468" y1="634.5269" y2="634.5269"/><polygon fill="#181818" points="255.9468,630.5269,265.9468,634.5269,255.9468,638.5269,259.9468,634.5269" style="stroke:#181818;stroke-width:1;"/><line style="stroke:#181818;stroke-width:1;" x1="240.3604" x2="240.3604" y1="602.5269" y2="607.5269"/><line style="stroke:#181818;stroke-width:1;" x1="240.3604" x2="109.8369" y1="607.5269" y2="607.5269"/><line style="stroke:#181818;stroke-width:1;" x1="109.8369" x2="109.8369" y1="607.5269" y2="622.5269"/><polygon fill="#181818" points="105.8369,612.5269,109.8369,622.5269,113.8369,612.5269,109.8369,616.5269" style="stroke:#181818;stroke-width:1;"/><line style="stroke:#181818;stroke-width:1;" x1="382.4478" x2="447.5122" y1="634.5269" y2="634.5269"/><line style="stroke:#181818;stroke-width:1;" x1="447.5122" x2="447.5122" y1="634.5269" y2="681.9136"/><polygon fill="#181818" points="443.5122,671.9136,447.5122,681.9136,451.5122,671.9136,447.5122,675.9136" style="stroke:#181818;stroke-width:1;"/><line style="stroke:#181818;stroke-width:1;" x1="109.8369" x2="324.1973" y1="733.3003" y2="733.3003"/><line style="stroke:#181818;stroke-width:1;" x1="240.3604" x2="240.3604" y1="733.3003" y2="753.3003"/><polygon fill="#181818" points="236.3604,743.3003,240.3604,753.3003,244.3604,743.3003,240.3604,747.3003" style="stroke:#181818;stroke-width:1;"/><line style="stroke:#181818;stroke-width:1;" x1="240.3604" x2="240.3604" y1="831.269" y2="855.6714"/><polygon fill="#181818" points="236.3604,845.6714,240.3604,855.6714,244.3604,845.6714,240.3604,849.6714" style="stroke:#181818;stroke-width:1;"/><line style="stroke:#181818;stroke-width:1;" x1="307.0247" x2="343.8213" y1="819.269" y2="819.269"/><polygon fill="#181818" points="339.8213,862.6558,343.8213,872.6558,347.8213,862.6558,343.8213,866.6558" style="stroke:#181818;stroke-width:1;"/><line style="stroke:#181818;stroke-width:1;" x1="343.8213" x2="343.8213" y1="819.269" y2="921.6401"/><line style="stroke:#181818;stroke-width:1;" x1="343.8213" x2="252.3604" y1="921.6401" y2="921.6401"/><polygon fill="#181818" points="262.3604,917.6401,252.3604,921.6401,262.3604,925.6401,258.3604,921.6401" style="stroke:#181818;stroke-width:1;"/><line style="stroke:#181818;stroke-width:1;" x1="240.3604" x2="240.3604" y1="889.6401" y2="909.6401"/><polygon fill="#181818" points="236.3604,899.6401,240.3604,909.6401,244.3604,899.6401,240.3604,903.6401" style="stroke:#181818;stroke-width:1;"/><line style="stroke:#181818;stroke-width:1;" x1="240.3604" x2="240.3604" y1="787.269" y2="807.269"/><polygon fill="#181818" points="236.3604,797.269,240.3604,807.269,244.3604,797.269,240.3604,801.269" style="stroke:#181818;stroke-width:1;"/><line style="stroke:#181818;stroke-width:1;" x1="240.3604" x2="240.3604" y1="933.6401" y2="953.6401"/><polygon fill="#181818" points="236.3604,943.6401,240.3604,953.6401,244.3604,943.6401,240.3604,947.6401" style="stroke:#181818;stroke-width:1;"/><?plantuml-src VLFDJi904BxlK-nHNe4UV1OJIo0XQ6mJhxIec40y60wSC9wy5cob_BHzXPatyflPIY6YfytkV3FVpxH1U7KNcZOjEAOj3td2CKyjFr39GzhpoE98EE8nPK0a7g2ljC8bmZMtLA4A1EsbBlsM8qefenrjAVUCkU_s-hwze1b01HKyeSoYXF7eoy0Po-Dbo_O2e0ePqpBMjkcDIk0IMeD1DA7bcN9QobmB2GaeSb0b_8GJLD8q1tkbWbQKkxQq8VQCFxZ-4OJtbZ6EPySZEAmRAcWGQR3KA0PbuJ8HEI1SyKJ2M2XTLbjs4xHUgKkqnohdKuOT4iJCfGQhyCXXKCs0o_dbNEXegKGfPDGiHnZF_CvBPQrv17DJcI8eq-lKgy2ZX4qRX9g9mLGlibKaHnaM4dRz0T0V6WVCQs7hblEEB1xLs47E-1Gd-ueR1tu_y9LyZdi9cwKaI9iZs5-JvVYZnSt5LFbytRuI6HE4DxUowrx7d4b6WqpLgKZ-Kk-5kFPSGAS_0_Wb5ba-TjC4CtDSxN_Xnp50lrUh4e7V?></g></svg>