<?plantuml 1.2026.2?><svg xmlns="http://www.w3.org/2000/svg" xmlns:xlink="http://www.w3.org/1999/xlink" contentStyleType="text/css" data-diagram-type="CLASS" height="786px" preserveAspectRatio="none" style="width:2056px;height:786px;background:#FFFFFF;" version="1.1" viewBox="0 0 2056 786" width="2056px" zoomAndPan="magnify"><defs/><g><!--class User--><g class="entity" data-qualified-name="User" data-source-line="4" id="ent0002"><rect fill="#F1F1F1" height="194.6719" rx="2.5" ry="2.5" style="stroke:#181818;stroke-width:0.5;" width="196.167" x="353.5" y="156"/><ellipse cx="431.3784" cy="172" fill="#ADD1B2" rx="11" ry="11" style="stroke:#181818;stroke-width:1;"/><path d="M434.3472,177.6406 Q433.769,177.9375 433.1284,178.0781 Q432.4878,178.2344 431.7847,178.2344 Q429.2847,178.2344 427.9565,176.5938 Q426.644,174.9375 426.644,171.8125 Q426.644,168.6875 427.9565,167.0313 Q429.2847,165.375 431.7847,165.375 Q432.4878,165.375 433.1284,165.5313 Q433.7847,165.6875 434.3472,165.9844 L434.3472,168.7031 Q433.7222,168.125 433.1284,167.8594 Q432.5347,167.5781 431.9097,167.5781 Q430.5659,167.5781 429.8784,168.6563 Q429.1909,169.7188 429.1909,171.8125 Q429.1909,173.9063 429.8784,174.9844 Q430.5659,176.0469 431.9097,176.0469 Q432.5347,176.0469 433.1284,175.7813 Q433.7222,175.5 434.3472,174.9219 L434.3472,177.6406 Z " fill="#000000"/><text fill="#000000" font-family="sans-serif" font-size="14" lengthAdjust="spacing" textLength="31.9102" x="451.8784" y="176.8467">User</text><line style="stroke:#181818;stroke-width:0.5;" x1="354.5" x2="548.667" y1="188" y2="188"/><text fill="#000000" font-family="sans-serif" font-size="14" lengthAdjust="spacing" textLength="24.5068" x="359.5" y="204.9951">+id</text><text fill="#000000" font-family="sans-serif" font-size="14" lengthAdjust="spacing" textLength="51.4336" x="359.5" y="221.292">+name</text><text fill="#000000" font-family="sans-serif" font-size="14" lengthAdjust="spacing" textLength="50.3398" x="359.5" y="237.5889">+email</text><text fill="#000000" font-family="sans-serif" font-size="14" lengthAdjust="spacing" textLength="78.4424" x="359.5" y="253.8857">+password</text><text fill="#000000" font-family="sans-serif" font-size="14" lengthAdjust="spacing" textLength="38.5547" x="359.5" y="270.1826">+role</text><text fill="#000000" font-family="sans-serif" font-size="14" lengthAdjust="spacing" textLength="132.0156" x="359.5" y="286.4795">+google2fa_secret</text><text fill="#000000" font-family="sans-serif" font-size="14" lengthAdjust="spacing" textLength="184.167" x="359.5" y="302.7764">+two_factor_confirmed_at</text><line style="stroke:#181818;stroke-width:0.5;" x1="354.5" x2="548.667" y1="310.0781" y2="310.0781"/><text fill="#000000" font-family="sans-serif" font-size="14" lengthAdjust="spacing" textLength="71.8594" x="359.5" y="327.0732">+picture()</text><text fill="#000000" font-family="sans-serif" font-size="14" lengthAdjust="spacing" textLength="153.9727" x="359.5" y="343.3701">+getAvatarAttribute()</text></g><!--class Picture--><g class="entity" data-qualified-name="Picture" data-source-line="16" id="ent0003"><rect fill="#F1F1F1" height="105.1875" rx="2.5" ry="2.5" style="stroke:#181818;stroke-width:0.5;" width="102.6445" x="339" y="456"/><ellipse cx="363.8477" cy="472" fill="#ADD1B2" rx="11" ry="11" style="stroke:#181818;stroke-width:1;"/><path d="M366.8165,477.6406 Q366.2383,477.9375 365.5977,478.0781 Q364.9571,478.2344 364.254,478.2344 Q361.754,478.2344 360.4258,476.5938 Q359.1133,474.9375 359.1133,471.8125 Q359.1133,468.6875 360.4258,467.0313 Q361.754,465.375 364.254,465.375 Q364.9571,465.375 365.5977,465.5313 Q366.254,465.6875 366.8165,465.9844 L366.8165,468.7031 Q366.1915,468.125 365.5977,467.8594 Q365.004,467.5781 364.379,467.5781 Q363.0352,467.5781 362.3477,468.6563 Q361.6602,469.7188 361.6602,471.8125 Q361.6602,473.9063 362.3477,474.9844 Q363.0352,476.0469 364.379,476.0469 Q365.004,476.0469 365.5977,475.7813 Q366.1915,475.5 366.8165,474.9219 L366.8165,477.6406 Z " fill="#000000"/><text fill="#000000" font-family="sans-serif" font-size="14" lengthAdjust="spacing" textLength="48.7607" x="380.0361" y="476.8467">Picture</text><line style="stroke:#181818;stroke-width:0.5;" x1="340" x2="440.6445" y1="488" y2="488"/><text fill="#000000" font-family="sans-serif" font-size="14" lengthAdjust="spacing" textLength="24.5068" x="345" y="504.9951">+id</text><text fill="#000000" font-family="sans-serif" font-size="14" lengthAdjust="spacing" textLength="72.1465" x="345" y="521.292">+entity_id</text><text fill="#000000" font-family="sans-serif" font-size="14" lengthAdjust="spacing" textLength="90.6445" x="345" y="537.5889">+entity_type</text><text fill="#000000" font-family="sans-serif" font-size="14" lengthAdjust="spacing" textLength="43.5586" x="345" y="553.8857">+path</text></g><!--class News--><g class="entity" data-qualified-name="News" data-source-line="23" id="ent0004"><rect fill="#F1F1F1" height="88.8906" rx="2.5" ry="2.5" style="stroke:#181818;stroke-width:0.5;" width="77.3311" x="215" y="209"/><ellipse cx="233.3754" cy="225" fill="#ADD1B2" rx="11" ry="11" style="stroke:#181818;stroke-width:1;"/><path d="M236.3442,230.6406 Q235.7661,230.9375 235.1254,231.0781 Q234.4848,231.2344 233.7817,231.2344 Q231.2817,231.2344 229.9536,229.5938 Q228.6411,227.9375 228.6411,224.8125 Q228.6411,221.6875 229.9536,220.0313 Q231.2817,218.375 233.7817,218.375 Q234.4848,218.375 235.1254,218.5313 Q235.7817,218.6875 236.3442,218.9844 L236.3442,221.7031 Q235.7192,221.125 235.1254,220.8594 Q234.5317,220.5781 233.9067,220.5781 Q232.5629,220.5781 231.8754,221.6563 Q231.1879,222.7188 231.1879,224.8125 Q231.1879,226.9063 231.8754,227.9844 Q232.5629,229.0469 233.9067,229.0469 Q234.5317,229.0469 235.1254,228.7813 Q235.7192,228.5 236.3442,227.9219 L236.3442,230.6406 Z " fill="#000000"/><text fill="#000000" font-family="sans-serif" font-size="14" lengthAdjust="spacing" textLength="37.8301" x="248.1255" y="229.8467">News</text><line style="stroke:#181818;stroke-width:0.5;" x1="216" x2="291.3311" y1="241" y2="241"/><text fill="#000000" font-family="sans-serif" font-size="14" lengthAdjust="spacing" textLength="24.5068" x="221" y="257.9951">+id</text><text fill="#000000" font-family="sans-serif" font-size="14" lengthAdjust="spacing" textLength="39.1016" x="221" y="274.292">+title</text><text fill="#000000" font-family="sans-serif" font-size="14" lengthAdjust="spacing" textLength="65.3311" x="221" y="290.5889">+content</text></g><!--class Comment--><g class="entity" data-qualified-name="Comment" data-source-line="29" id="ent0005"><rect fill="#F1F1F1" height="105.1875" rx="2.5" ry="2.5" style="stroke:#181818;stroke-width:0.5;" width="100.5918" x="203" y="456"/><ellipse cx="218" cy="472" fill="#ADD1B2" rx="11" ry="11" style="stroke:#181818;stroke-width:1;"/><path d="M220.9688,477.6406 Q220.3906,477.9375 219.75,478.0781 Q219.1094,478.2344 218.4063,478.2344 Q215.9063,478.2344 214.5781,476.5938 Q213.2656,474.9375 213.2656,471.8125 Q213.2656,468.6875 214.5781,467.0313 Q215.9063,465.375 218.4063,465.375 Q219.1094,465.375 219.75,465.5313 Q220.4063,465.6875 220.9688,465.9844 L220.9688,468.7031 Q220.3438,468.125 219.75,467.8594 Q219.1563,467.5781 218.5313,467.5781 Q217.1875,467.5781 216.5,468.6563 Q215.8125,469.7188 215.8125,471.8125 Q215.8125,473.9063 216.5,474.9844 Q217.1875,476.0469 218.5313,476.0469 Q219.1563,476.0469 219.75,475.7813 Q220.3438,475.5 220.9688,474.9219 L220.9688,477.6406 Z " fill="#000000"/><text fill="#000000" font-family="sans-serif" font-size="14" lengthAdjust="spacing" textLength="68.5918" x="232" y="476.8467">Comment</text><line style="stroke:#181818;stroke-width:0.5;" x1="204" x2="302.5918" y1="488" y2="488"/><text fill="#000000" font-family="sans-serif" font-size="14" lengthAdjust="spacing" textLength="24.5068" x="209" y="504.9951">+id</text><text fill="#000000" font-family="sans-serif" font-size="14" lengthAdjust="spacing" textLength="67.7373" x="209" y="521.292">+news_id</text><text fill="#000000" font-family="sans-serif" font-size="14" lengthAdjust="spacing" textLength="62.043" x="209" y="537.5889">+user_id</text><text fill="#000000" font-family="sans-serif" font-size="14" lengthAdjust="spacing" textLength="65.3311" x="209" y="553.8857">+content</text></g><!--class KnowledgeBaseCategory--><g class="entity" data-qualified-name="KnowledgeBaseCategory" data-source-line="36" id="ent0006"><rect fill="#F1F1F1" height="113.1875" rx="2.5" ry="2.5" style="stroke:#181818;stroke-width:0.5;" width="207" x="463" y="666"/><ellipse cx="478" cy="682" fill="#ADD1B2" rx="11" ry="11" style="stroke:#181818;stroke-width:1;"/><path d="M480.9688,687.6406 Q480.3906,687.9375 479.75,688.0781 Q479.1094,688.2344 478.4063,688.2344 Q475.9063,688.2344 474.5781,686.5938 Q473.2656,684.9375 473.2656,681.8125 Q473.2656,678.6875 474.5781,677.0313 Q475.9063,675.375 478.4063,675.375 Q479.1094,675.375 479.75,675.5313 Q480.4063,675.6875 480.9688,675.9844 L480.9688,678.7031 Q480.3438,678.125 479.75,677.8594 Q479.1563,677.5781 478.5313,677.5781 Q477.1875,677.5781 476.5,678.6563 Q475.8125,679.7188 475.8125,681.8125 Q475.8125,683.9063 476.5,684.9844 Q477.1875,686.0469 478.5313,686.0469 Q479.1563,686.0469 479.75,685.7813 Q480.3438,685.5 480.9688,684.9219 L480.9688,687.6406 Z " fill="#000000"/><text fill="#000000" font-family="sans-serif" font-size="14" lengthAdjust="spacing" textLength="175" x="492" y="686.8467">KnowledgeBaseCategory</text><line style="stroke:#181818;stroke-width:0.5;" x1="464" x2="669" y1="698" y2="698"/><text fill="#000000" font-family="sans-serif" font-size="14" lengthAdjust="spacing" textLength="24.5068" x="469" y="714.9951">+id</text><text fill="#000000" font-family="sans-serif" font-size="14" lengthAdjust="spacing" textLength="39.1016" x="469" y="731.292">+title</text><text fill="#000000" font-family="sans-serif" font-size="14" lengthAdjust="spacing" textLength="49.3076" x="469" y="747.5889">+order</text><line style="stroke:#181818;stroke-width:0.5;" x1="464" x2="669" y1="754.8906" y2="754.8906"/><text fill="#000000" font-family="sans-serif" font-size="14" lengthAdjust="spacing" textLength="64.9141" x="469" y="771.8857">+pages()</text></g><!--class KnowledgeBasePage--><g class="entity" data-qualified-name="KnowledgeBasePage" data-source-line="43" id="ent0007"><rect fill="#F1F1F1" height="194.6719" rx="2.5" ry="2.5" style="stroke:#181818;stroke-width:0.5;" width="177.5713" x="477.5" y="411"/><ellipse cx="492.5" cy="427" fill="#ADD1B2" rx="11" ry="11" style="stroke:#181818;stroke-width:1;"/><path d="M495.4688,432.6406 Q494.8906,432.9375 494.25,433.0781 Q493.6094,433.2344 492.9063,433.2344 Q490.4063,433.2344 489.0781,431.5938 Q487.7656,429.9375 487.7656,426.8125 Q487.7656,423.6875 489.0781,422.0313 Q490.4063,420.375 492.9063,420.375 Q493.6094,420.375 494.25,420.5313 Q494.9063,420.6875 495.4688,420.9844 L495.4688,423.7031 Q494.8438,423.125 494.25,422.8594 Q493.6563,422.5781 493.0313,422.5781 Q491.6875,422.5781 491,423.6563 Q490.3125,424.7188 490.3125,426.8125 Q490.3125,428.9063 491,429.9844 Q491.6875,431.0469 493.0313,431.0469 Q493.6563,431.0469 494.25,430.7813 Q494.8438,430.5 495.4688,429.9219 L495.4688,432.6406 Z " fill="#000000"/><text fill="#000000" font-family="sans-serif" font-size="14" lengthAdjust="spacing" textLength="145.5713" x="506.5" y="431.8467">KnowledgeBasePage</text><line style="stroke:#181818;stroke-width:0.5;" x1="478.5" x2="654.0713" y1="443" y2="443"/><text fill="#000000" font-family="sans-serif" font-size="14" lengthAdjust="spacing" textLength="24.5068" x="483.5" y="459.9951">+id</text><text fill="#000000" font-family="sans-serif" font-size="14" lengthAdjust="spacing" textLength="39.1016" x="483.5" y="476.292">+title</text><text fill="#000000" font-family="sans-serif" font-size="14" lengthAdjust="spacing" textLength="65.3311" x="483.5" y="492.5889">+content</text><text fill="#000000" font-family="sans-serif" font-size="14" lengthAdjust="spacing" textLength="62.043" x="483.5" y="508.8857">+user_id</text><text fill="#000000" font-family="sans-serif" font-size="14" lengthAdjust="spacing" textLength="93.3789" x="483.5" y="525.1826">+category_id</text><text fill="#000000" font-family="sans-serif" font-size="14" lengthAdjust="spacing" textLength="49.3076" x="483.5" y="541.4795">+order</text><text fill="#000000" font-family="sans-serif" font-size="14" lengthAdjust="spacing" textLength="90.9385" x="483.5" y="557.7764">+photo_path</text><line style="stroke:#181818;stroke-width:0.5;" x1="478.5" x2="654.0713" y1="565.0781" y2="565.0781"/><text fill="#000000" font-family="sans-serif" font-size="14" lengthAdjust="spacing" textLength="53.1904" x="483.5" y="582.0732">+user()</text><text fill="#000000" font-family="sans-serif" font-size="14" lengthAdjust="spacing" textLength="84.5264" x="483.5" y="598.3701">+category()</text></g><!--class Variable--><g class="entity" data-qualified-name="Variable" data-source-line="55" id="ent0008"><rect fill="#F1F1F1" height="121.4844" rx="2.5" ry="2.5" style="stroke:#181818;stroke-width:0.5;" width="156.3135" x="584.5" y="193"/><ellipse cx="629.5215" cy="209" fill="#ADD1B2" rx="11" ry="11" style="stroke:#181818;stroke-width:1;"/><path d="M632.4902,214.6406 Q631.9121,214.9375 631.2715,215.0781 Q630.6309,215.2344 629.9277,215.2344 Q627.4277,215.2344 626.0996,213.5938 Q624.7871,211.9375 624.7871,208.8125 Q624.7871,205.6875 626.0996,204.0313 Q627.4277,202.375 629.9277,202.375 Q630.6309,202.375 631.2715,202.5313 Q631.9277,202.6875 632.4902,202.9844 L632.4902,205.7031 Q631.8652,205.125 631.2715,204.8594 Q630.6777,204.5781 630.0527,204.5781 Q628.709,204.5781 628.0215,205.6563 Q627.334,206.7188 627.334,208.8125 Q627.334,210.9063 628.0215,211.9844 Q628.709,213.0469 630.0527,213.0469 Q630.6777,213.0469 631.2715,212.7813 Q631.8652,212.5 632.4902,211.9219 L632.4902,214.6406 Z " fill="#000000"/><text fill="#000000" font-family="sans-serif" font-size="14" lengthAdjust="spacing" textLength="57.7705" x="650.0215" y="213.8467">Variable</text><line style="stroke:#181818;stroke-width:0.5;" x1="585.5" x2="739.8135" y1="225" y2="225"/><text fill="#000000" font-family="sans-serif" font-size="14" lengthAdjust="spacing" textLength="24.5068" x="590.5" y="241.9951">+id</text><text fill="#000000" font-family="sans-serif" font-size="14" lengthAdjust="spacing" textLength="51.4336" x="590.5" y="258.292">+name</text><text fill="#000000" font-family="sans-serif" font-size="14" lengthAdjust="spacing" textLength="49.9707" x="590.5" y="274.5889">+value</text><text fill="#000000" font-family="sans-serif" font-size="14" lengthAdjust="spacing" textLength="144.3135" x="590.5" y="290.8857">+counteragent_type</text><text fill="#000000" font-family="sans-serif" font-size="14" lengthAdjust="spacing" textLength="85.4629" x="590.5" y="307.1826">+table_type</text></g><!--class Nds--><g class="entity" data-qualified-name="Nds" data-source-line="63" id="ent0009"><rect fill="#F1F1F1" height="88.8906" rx="2.5" ry="2.5" style="stroke:#181818;stroke-width:0.5;" width="104.1963" x="775.5" y="209"/><ellipse cx="810.9943" cy="225" fill="#ADD1B2" rx="11" ry="11" style="stroke:#181818;stroke-width:1;"/><path d="M813.9631,230.6406 Q813.385,230.9375 812.7443,231.0781 Q812.1037,231.2344 811.4006,231.2344 Q808.9006,231.2344 807.5725,229.5938 Q806.26,227.9375 806.26,224.8125 Q806.26,221.6875 807.5725,220.0313 Q808.9006,218.375 811.4006,218.375 Q812.1037,218.375 812.7443,218.5313 Q813.4006,218.6875 813.9631,218.9844 L813.9631,221.7031 Q813.3381,221.125 812.7443,220.8594 Q812.1506,220.5781 811.5256,220.5781 Q810.1818,220.5781 809.4943,221.6563 Q808.8068,222.7188 808.8068,224.8125 Q808.8068,226.9063 809.4943,227.9844 Q810.1818,229.0469 811.5256,229.0469 Q812.1506,229.0469 812.7443,228.7813 Q813.3381,228.5 813.9631,227.9219 L813.9631,230.6406 Z " fill="#000000"/><text fill="#000000" font-family="sans-serif" font-size="14" lengthAdjust="spacing" textLength="26.6533" x="829.5486" y="229.8467">Nds</text><line style="stroke:#181818;stroke-width:0.5;" x1="776.5" x2="878.6963" y1="241" y2="241"/><text fill="#000000" font-family="sans-serif" font-size="14" lengthAdjust="spacing" textLength="24.5068" x="781.5" y="257.9951">+id</text><text fill="#000000" font-family="sans-serif" font-size="14" lengthAdjust="spacing" textLength="92.1963" x="781.5" y="274.292">+code_name</text><text fill="#000000" font-family="sans-serif" font-size="14" lengthAdjust="spacing" textLength="65.6592" x="781.5" y="290.5889">+percent</text></g><!--class Spk--><g class="entity" data-qualified-name="Spk" data-source-line="69" id="ent0010"><rect fill="#F1F1F1" height="88.8906" rx="2.5" ry="2.5" style="stroke:#181818;stroke-width:0.5;" width="96.916" x="1827" y="209"/><ellipse cx="1859.5658" cy="225" fill="#ADD1B2" rx="11" ry="11" style="stroke:#181818;stroke-width:1;"/><path d="M1862.5346,230.6406 Q1861.9564,230.9375 1861.3158,231.0781 Q1860.6752,231.2344 1859.9721,231.2344 Q1857.4721,231.2344 1856.1439,229.5938 Q1854.8314,227.9375 1854.8314,224.8125 Q1854.8314,221.6875 1856.1439,220.0313 Q1857.4721,218.375 1859.9721,218.375 Q1860.6752,218.375 1861.3158,218.5313 Q1861.9721,218.6875 1862.5346,218.9844 L1862.5346,221.7031 Q1861.9096,221.125 1861.3158,220.8594 Q1860.7221,220.5781 1860.0971,220.5781 Q1858.7533,220.5781 1858.0658,221.6563 Q1857.3783,222.7188 1857.3783,224.8125 Q1857.3783,226.9063 1858.0658,227.9844 Q1858.7533,229.0469 1860.0971,229.0469 Q1860.7221,229.0469 1861.3158,228.7813 Q1861.9096,228.5 1862.5346,227.9219 L1862.5346,230.6406 Z " fill="#000000"/><text fill="#000000" font-family="sans-serif" font-size="14" lengthAdjust="spacing" textLength="25.8809" x="1877.4693" y="229.8467">Spk</text><line style="stroke:#181818;stroke-width:0.5;" x1="1828" x2="1922.916" y1="241" y2="241"/><text fill="#000000" font-family="sans-serif" font-size="14" lengthAdjust="spacing" textLength="24.5068" x="1833" y="257.9951">+id</text><text fill="#000000" font-family="sans-serif" font-size="14" lengthAdjust="spacing" textLength="51.4336" x="1833" y="274.292">+name</text><text fill="#000000" font-family="sans-serif" font-size="14" lengthAdjust="spacing" textLength="84.916" x="1833" y="290.5889">+coefficient</text></g><!--class Supplier--><g class="entity" data-qualified-name="Supplier" data-source-line="75" id="ent0011"><rect fill="#F1F1F1" height="72.5938" rx="2.5" ry="2.5" style="stroke:#181818;stroke-width:0.5;" width="89.6816" x="1959.5" y="217"/><ellipse cx="1974.5" cy="233" fill="#ADD1B2" rx="11" ry="11" style="stroke:#181818;stroke-width:1;"/><path d="M1977.4688,238.6406 Q1976.8906,238.9375 1976.25,239.0781 Q1975.6094,239.2344 1974.9063,239.2344 Q1972.4063,239.2344 1971.0781,237.5938 Q1969.7656,235.9375 1969.7656,232.8125 Q1969.7656,229.6875 1971.0781,228.0313 Q1972.4063,226.375 1974.9063,226.375 Q1975.6094,226.375 1976.25,226.5313 Q1976.9063,226.6875 1977.4688,226.9844 L1977.4688,229.7031 Q1976.8438,229.125 1976.25,228.8594 Q1975.6563,228.5781 1975.0313,228.5781 Q1973.6875,228.5781 1973,229.6563 Q1972.3125,230.7188 1972.3125,232.8125 Q1972.3125,234.9063 1973,235.9844 Q1973.6875,237.0469 1975.0313,237.0469 Q1975.6563,237.0469 1976.25,236.7813 Q1976.8438,236.5 1977.4688,235.9219 L1977.4688,238.6406 Z " fill="#000000"/><text fill="#000000" font-family="sans-serif" font-size="14" lengthAdjust="spacing" textLength="57.6816" x="1988.5" y="237.8467">Supplier</text><line style="stroke:#181818;stroke-width:0.5;" x1="1960.5" x2="2048.1816" y1="249" y2="249"/><text fill="#000000" font-family="sans-serif" font-size="14" lengthAdjust="spacing" textLength="24.5068" x="1965.5" y="265.9951">+id</text><text fill="#000000" font-family="sans-serif" font-size="14" lengthAdjust="spacing" textLength="51.4336" x="1965.5" y="282.292">+name</text></g><!--class SoldFromCompany--><g class="entity" data-qualified-name="SoldFromCompany" data-source-line="80" id="ent0012"><rect fill="#F1F1F1" height="72.5938" rx="2.5" ry="2.5" style="stroke:#181818;stroke-width:0.5;" width="164.8428" x="7" y="15"/><ellipse cx="22" cy="31" fill="#ADD1B2" rx="11" ry="11" style="stroke:#181818;stroke-width:1;"/><path d="M24.9688,36.6406 Q24.3906,36.9375 23.75,37.0781 Q23.1094,37.2344 22.4063,37.2344 Q19.9063,37.2344 18.5781,35.5938 Q17.2656,33.9375 17.2656,30.8125 Q17.2656,27.6875 18.5781,26.0313 Q19.9063,24.375 22.4063,24.375 Q23.1094,24.375 23.75,24.5313 Q24.4063,24.6875 24.9688,24.9844 L24.9688,27.7031 Q24.3438,27.125 23.75,26.8594 Q23.1563,26.5781 22.5313,26.5781 Q21.1875,26.5781 20.5,27.6563 Q19.8125,28.7188 19.8125,30.8125 Q19.8125,32.9063 20.5,33.9844 Q21.1875,35.0469 22.5313,35.0469 Q23.1563,35.0469 23.75,34.7813 Q24.3438,34.5 24.9688,33.9219 L24.9688,36.6406 Z " fill="#000000"/><text fill="#000000" font-family="sans-serif" font-size="14" lengthAdjust="spacing" textLength="132.8428" x="36" y="35.8467">SoldFromCompany</text><line style="stroke:#181818;stroke-width:0.5;" x1="8" x2="170.8428" y1="47" y2="47"/><text fill="#000000" font-family="sans-serif" font-size="14" lengthAdjust="spacing" textLength="24.5068" x="13" y="63.9951">+id</text><text fill="#000000" font-family="sans-serif" font-size="14" lengthAdjust="spacing" textLength="51.4336" x="13" y="80.292">+name</text></g><!--class Reports--><g class="entity" data-qualified-name="Reports" data-source-line="85" id="ent0013"><rect fill="#F1F1F1" height="72.5938" rx="2.5" ry="2.5" style="stroke:#181818;stroke-width:0.5;" width="86.332" x="207.5" y="15"/><ellipse cx="222.5" cy="31" fill="#ADD1B2" rx="11" ry="11" style="stroke:#181818;stroke-width:1;"/><path d="M225.4688,36.6406 Q224.8906,36.9375 224.25,37.0781 Q223.6094,37.2344 222.9063,37.2344 Q220.4063,37.2344 219.0781,35.5938 Q217.7656,33.9375 217.7656,30.8125 Q217.7656,27.6875 219.0781,26.0313 Q220.4063,24.375 222.9063,24.375 Q223.6094,24.375 224.25,24.5313 Q224.9063,24.6875 225.4688,24.9844 L225.4688,27.7031 Q224.8438,27.125 224.25,26.8594 Q223.6563,26.5781 223.0313,26.5781 Q221.6875,26.5781 221,27.6563 Q220.3125,28.7188 220.3125,30.8125 Q220.3125,32.9063 221,33.9844 Q221.6875,35.0469 223.0313,35.0469 Q223.6563,35.0469 224.25,34.7813 Q224.8438,34.5 225.4688,33.9219 L225.4688,36.6406 Z " fill="#000000"/><text fill="#000000" font-family="sans-serif" font-size="14" lengthAdjust="spacing" textLength="54.332" x="236.5" y="35.8467">Reports</text><line style="stroke:#181818;stroke-width:0.5;" x1="208.5" x2="292.832" y1="47" y2="47"/><text fill="#000000" font-family="sans-serif" font-size="14" lengthAdjust="spacing" textLength="24.5068" x="213.5" y="63.9951">+id</text><text fill="#000000" font-family="sans-serif" font-size="14" lengthAdjust="spacing" textLength="62.043" x="213.5" y="80.292">+user_id</text></g><!--class DraftsReports--><g class="entity" data-qualified-name="DraftsReports" data-source-line="90" id="ent0014"><rect fill="#F1F1F1" height="72.5938" rx="2.5" ry="2.5" style="stroke:#181818;stroke-width:0.5;" width="129.1592" x="25" y="217"/><ellipse cx="40" cy="233" fill="#ADD1B2" rx="11" ry="11" style="stroke:#181818;stroke-width:1;"/><path d="M42.9688,238.6406 Q42.3906,238.9375 41.75,239.0781 Q41.1094,239.2344 40.4063,239.2344 Q37.9063,239.2344 36.5781,237.5938 Q35.2656,235.9375 35.2656,232.8125 Q35.2656,229.6875 36.5781,228.0313 Q37.9063,226.375 40.4063,226.375 Q41.1094,226.375 41.75,226.5313 Q42.4063,226.6875 42.9688,226.9844 L42.9688,229.7031 Q42.3438,229.125 41.75,228.8594 Q41.1563,228.5781 40.5313,228.5781 Q39.1875,228.5781 38.5,229.6563 Q37.8125,230.7188 37.8125,232.8125 Q37.8125,234.9063 38.5,235.9844 Q39.1875,237.0469 40.5313,237.0469 Q41.1563,237.0469 41.75,236.7813 Q42.3438,236.5 42.9688,235.9219 L42.9688,238.6406 Z " fill="#000000"/><text fill="#000000" font-family="sans-serif" font-size="14" lengthAdjust="spacing" textLength="97.1592" x="54" y="237.8467">DraftsReports</text><line style="stroke:#181818;stroke-width:0.5;" x1="26" x2="153.1592" y1="249" y2="249"/><text fill="#000000" font-family="sans-serif" font-size="14" lengthAdjust="spacing" textLength="24.5068" x="31" y="265.9951">+id</text><text fill="#000000" font-family="sans-serif" font-size="14" lengthAdjust="spacing" textLength="62.043" x="31" y="282.292">+user_id</text></g><!--class FinReport--><g class="entity" data-qualified-name="FinReport" data-source-line="95" id="ent0015"><rect fill="#F1F1F1" height="88.8906" rx="2.5" ry="2.5" style="stroke:#181818;stroke-width:0.5;" width="99.8535" x="1889.5" y="7"/><ellipse cx="1904.5" cy="23" fill="#ADD1B2" rx="11" ry="11" style="stroke:#181818;stroke-width:1;"/><path d="M1907.4688,28.6406 Q1906.8906,28.9375 1906.25,29.0781 Q1905.6094,29.2344 1904.9063,29.2344 Q1902.4063,29.2344 1901.0781,27.5938 Q1899.7656,25.9375 1899.7656,22.8125 Q1899.7656,19.6875 1901.0781,18.0313 Q1902.4063,16.375 1904.9063,16.375 Q1905.6094,16.375 1906.25,16.5313 Q1906.9063,16.6875 1907.4688,16.9844 L1907.4688,19.7031 Q1906.8438,19.125 1906.25,18.8594 Q1905.6563,18.5781 1905.0313,18.5781 Q1903.6875,18.5781 1903,19.6563 Q1902.3125,20.7188 1902.3125,22.8125 Q1902.3125,24.9063 1903,25.9844 Q1903.6875,27.0469 1905.0313,27.0469 Q1905.6563,27.0469 1906.25,26.7813 Q1906.8438,26.5 1907.4688,25.9219 L1907.4688,28.6406 Z " fill="#000000"/><text fill="#000000" font-family="sans-serif" font-size="14" lengthAdjust="spacing" textLength="67.8535" x="1918.5" y="27.8467">FinReport</text><line style="stroke:#181818;stroke-width:0.5;" x1="1890.5" x2="1988.3535" y1="39" y2="39"/><text fill="#000000" font-family="sans-serif" font-size="14" lengthAdjust="spacing" textLength="24.5068" x="1895.5" y="55.9951">+id</text><text fill="#000000" font-family="sans-serif" font-size="14" lengthAdjust="spacing" textLength="87.5957" x="1895.5" y="72.292">+supplier_id</text><text fill="#000000" font-family="sans-serif" font-size="14" lengthAdjust="spacing" textLength="55.7949" x="1895.5" y="88.5889">+spk_id</text></g><!--class CalculationService--><g class="entity" data-qualified-name="CalculationService" data-source-line="101" id="ent0016"><rect fill="#F1F1F1" height="56.2969" rx="2.5" ry="2.5" style="stroke:#181818;stroke-width:0.5;" width="263.9111" x="1107.5" y="23.5"/><ellipse cx="1170.2847" cy="39.5" fill="#ADD1B2" rx="11" ry="11" style="stroke:#181818;stroke-width:1;"/><path d="M1173.2534,45.1406 Q1172.6753,45.4375 1172.0347,45.5781 Q1171.394,45.7344 1170.6909,45.7344 Q1168.1909,45.7344 1166.8628,44.0938 Q1165.5503,42.4375 1165.5503,39.3125 Q1165.5503,36.1875 1166.8628,34.5313 Q1168.1909,32.875 1170.6909,32.875 Q1171.394,32.875 1172.0347,33.0313 Q1172.6909,33.1875 1173.2534,33.4844 L1173.2534,36.2031 Q1172.6284,35.625 1172.0347,35.3594 Q1171.4409,35.0781 1170.8159,35.0781 Q1169.4722,35.0781 1168.7847,36.1563 Q1168.0972,37.2188 1168.0972,39.3125 Q1168.0972,41.4063 1168.7847,42.4844 Q1169.4722,43.5469 1170.8159,43.5469 Q1171.4409,43.5469 1172.0347,43.2813 Q1172.6284,43 1173.2534,42.4219 L1173.2534,45.1406 Z " fill="#000000"/><text fill="#000000" font-family="sans-serif" font-size="14" lengthAdjust="spacing" textLength="129.8418" x="1190.7847" y="44.3467">CalculationService</text><line style="stroke:#181818;stroke-width:0.5;" x1="1108.5" x2="1370.4111" y1="55.5" y2="55.5"/><text fill="#000000" font-family="sans-serif" font-size="14" lengthAdjust="spacing" textLength="251.9111" x="1113.5" y="72.4951">+calculate(CalculationRequestDTO)</text></g><!--class CalculationRequestDTO--><g class="entity" data-qualified-name="CalculationRequestDTO" data-source-line="105" id="ent0017"><rect fill="#F1F1F1" height="32" rx="2.5" ry="2.5" style="stroke:#181818;stroke-width:0.5;" width="197.9492" x="914.5" y="237.5"/><ellipse cx="929.5" cy="253.5" fill="#ADD1B2" rx="11" ry="11" style="stroke:#181818;stroke-width:1;"/><path d="M932.4688,259.1406 Q931.8906,259.4375 931.25,259.5781 Q930.6094,259.7344 929.9063,259.7344 Q927.4063,259.7344 926.0781,258.0938 Q924.7656,256.4375 924.7656,253.3125 Q924.7656,250.1875 926.0781,248.5313 Q927.4063,246.875 929.9063,246.875 Q930.6094,246.875 931.25,247.0313 Q931.9063,247.1875 932.4688,247.4844 L932.4688,250.2031 Q931.8438,249.625 931.25,249.3594 Q930.6563,249.0781 930.0313,249.0781 Q928.6875,249.0781 928,250.1563 Q927.3125,251.2188 927.3125,253.3125 Q927.3125,255.4063 928,256.4844 Q928.6875,257.5469 930.0313,257.5469 Q930.6563,257.5469 931.25,257.2813 Q931.8438,257 932.4688,256.4219 L932.4688,259.1406 Z " fill="#000000"/><text fill="#000000" font-family="sans-serif" font-size="14" lengthAdjust="spacing" textLength="165.9492" x="943.5" y="258.3467">CalculationRequestDTO</text></g><!--class CalculationResultDTO--><g class="entity" data-qualified-name="CalculationResultDTO" data-source-line="106" id="ent0018"><rect fill="#F1F1F1" height="32" rx="2.5" ry="2.5" style="stroke:#181818;stroke-width:0.5;" width="184.3389" x="1147.5" y="237.5"/><ellipse cx="1162.5" cy="253.5" fill="#ADD1B2" rx="11" ry="11" style="stroke:#181818;stroke-width:1;"/><path d="M1165.4688,259.1406 Q1164.8906,259.4375 1164.25,259.5781 Q1163.6094,259.7344 1162.9063,259.7344 Q1160.4063,259.7344 1159.0781,258.0938 Q1157.7656,256.4375 1157.7656,253.3125 Q1157.7656,250.1875 1159.0781,248.5313 Q1160.4063,246.875 1162.9063,246.875 Q1163.6094,246.875 1164.25,247.0313 Q1164.9063,247.1875 1165.4688,247.4844 L1165.4688,250.2031 Q1164.8438,249.625 1164.25,249.3594 Q1163.6563,249.0781 1163.0313,249.0781 Q1161.6875,249.0781 1161,250.1563 Q1160.3125,251.2188 1160.3125,253.3125 Q1160.3125,255.4063 1161,256.4844 Q1161.6875,257.5469 1163.0313,257.5469 Q1163.6563,257.5469 1164.25,257.2813 Q1164.8438,257 1165.4688,256.4219 L1165.4688,259.1406 Z " fill="#000000"/><text fill="#000000" font-family="sans-serif" font-size="14" lengthAdjust="spacing" textLength="152.3389" x="1176.5" y="258.3467">CalculationResultDTO</text></g><!--class InnCalculationStrategy--><g class="entity" data-qualified-name="InnCalculationStrategy" data-source-line="107" id="ent0019"><rect fill="#F1F1F1" height="32" rx="2.5" ry="2.5" style="stroke:#181818;stroke-width:0.5;" width="191.9609" x="1366.5" y="237.5"/><ellipse cx="1381.5" cy="253.5" fill="#ADD1B2" rx="11" ry="11" style="stroke:#181818;stroke-width:1;"/><path d="M1384.4688,259.1406 Q1383.8906,259.4375 1383.25,259.5781 Q1382.6094,259.7344 1381.9063,259.7344 Q1379.4063,259.7344 1378.0781,258.0938 Q1376.7656,256.4375 1376.7656,253.3125 Q1376.7656,250.1875 1378.0781,248.5313 Q1379.4063,246.875 1381.9063,246.875 Q1382.6094,246.875 1383.25,247.0313 Q1383.9063,247.1875 1384.4688,247.4844 L1384.4688,250.2031 Q1383.8438,249.625 1383.25,249.3594 Q1382.6563,249.0781 1382.0313,249.0781 Q1380.6875,249.0781 1380,250.1563 Q1379.3125,251.2188 1379.3125,253.3125 Q1379.3125,255.4063 1380,256.4844 Q1380.6875,257.5469 1382.0313,257.5469 Q1382.6563,257.5469 1383.25,257.2813 Q1383.8438,257 1384.4688,256.4219 L1384.4688,259.1406 Z " fill="#000000"/><text fill="#000000" font-family="sans-serif" font-size="14" lengthAdjust="spacing" textLength="159.9609" x="1395.5" y="258.3467">InnCalculationStrategy</text></g><!--class OooCalculationStrategy--><g class="entity" data-qualified-name="OooCalculationStrategy" data-source-line="108" id="ent0020"><rect fill="#F1F1F1" height="32" rx="2.5" ry="2.5" style="stroke:#181818;stroke-width:0.5;" width="198.2363" x="1593.5" y="237.5"/><ellipse cx="1608.5" cy="253.5" fill="#ADD1B2" rx="11" ry="11" style="stroke:#181818;stroke-width:1;"/><path d="M1611.4688,259.1406 Q1610.8906,259.4375 1610.25,259.5781 Q1609.6094,259.7344 1608.9063,259.7344 Q1606.4063,259.7344 1605.0781,258.0938 Q1603.7656,256.4375 1603.7656,253.3125 Q1603.7656,250.1875 1605.0781,248.5313 Q1606.4063,246.875 1608.9063,246.875 Q1609.6094,246.875 1610.25,247.0313 Q1610.9063,247.1875 1611.4688,247.4844 L1611.4688,250.2031 Q1610.8438,249.625 1610.25,249.3594 Q1609.6563,249.0781 1609.0313,249.0781 Q1607.6875,249.0781 1607,250.1563 Q1606.3125,251.2188 1606.3125,253.3125 Q1606.3125,255.4063 1607,256.4844 Q1607.6875,257.5469 1609.0313,257.5469 Q1609.6563,257.5469 1610.25,257.2813 Q1610.8438,257 1611.4688,256.4219 L1611.4688,259.1406 Z " fill="#000000"/><text fill="#000000" font-family="sans-serif" font-size="14" lengthAdjust="spacing" textLength="166.2363" x="1622.5" y="258.3467">OooCalculationStrategy</text></g><!--class CheckRole--><g class="entity" data-qualified-name="CheckRole" data-source-line="109" id="ent0021"><rect fill="#F1F1F1" height="56.2969" rx="2.5" ry="2.5" style="stroke:#181818;stroke-width:0.5;" width="244.5518" x="329" y="23.5"/><ellipse cx="410.0947" cy="39.5" fill="#ADD1B2" rx="11" ry="11" style="stroke:#181818;stroke-width:1;"/><path d="M413.0635,45.1406 Q412.4854,45.4375 411.8447,45.5781 Q411.2041,45.7344 410.501,45.7344 Q408.001,45.7344 406.6729,44.0938 Q405.3604,42.4375 405.3604,39.3125 Q405.3604,36.1875 406.6729,34.5313 Q408.001,32.875 410.501,32.875 Q411.2041,32.875 411.8447,33.0313 Q412.501,33.1875 413.0635,33.4844 L413.0635,36.2031 Q412.4385,35.625 411.8447,35.3594 Q411.251,35.0781 410.626,35.0781 Q409.2822,35.0781 408.5947,36.1563 Q407.9072,37.2188 407.9072,39.3125 Q407.9072,41.4063 408.5947,42.4844 Q409.2822,43.5469 410.626,43.5469 Q411.251,43.5469 411.8447,43.2813 Q412.4385,43 413.0635,42.4219 L413.0635,45.1406 Z " fill="#000000"/><text fill="#000000" font-family="sans-serif" font-size="14" lengthAdjust="spacing" textLength="73.8623" x="430.5947" y="44.3467">CheckRole</text><line style="stroke:#181818;stroke-width:0.5;" x1="330" x2="572.5518" y1="55.5" y2="55.5"/><text fill="#000000" font-family="sans-serif" font-size="14" lengthAdjust="spacing" textLength="232.5518" x="335" y="72.4951">+handle(Request, Closure, roles)</text></g><!--link User to Picture--><g class="link" data-entity-1="ent0002" data-entity-2="ent0003" data-link-type="dependency" data-source-line="113" id="lnk22"><path codeLine="113" d="M428.18,351.23 C419.6,386.8 411.625,419.8668 404.375,449.9668" fill="none" id="User-to-Picture" style="stroke:#181818;stroke-width:1;"/><polygon fill="#181818" points="402.97,455.8,408.9663,447.9869,404.1408,450.939,401.1887,446.1136,402.97,455.8" style="stroke:#181818;stroke-width:1;"/><text fill="#000000" font-family="sans-serif" font-size="13" lengthAdjust="spacing" textLength="8.271" x="418.2627" y="370.7121">1</text><text fill="#000000" font-family="sans-serif" font-size="13" lengthAdjust="spacing" textLength="24.8066" x="379.1112" y="444.7738">0..1</text></g><!--link User to Comment--><g class="link" data-entity-1="ent0002" data-entity-2="ent0005" data-link-type="dependency" data-source-line="114" id="lnk23"><path codeLine="114" d="M369.15,351.21 C353.06,370.77 336.53,391.37 321.5,411 C310.53,425.32 302.5222,436.2926 292.2022,450.9626" fill="none" id="User-to-Comment" style="stroke:#181818;stroke-width:1;"/><polygon fill="#181818" points="288.75,455.87,297.1999,450.8104,291.6268,451.7805,290.6567,446.2075,288.75,455.87" style="stroke:#181818;stroke-width:1;"/><text fill="#000000" font-family="sans-serif" font-size="13" lengthAdjust="spacing" textLength="8.271" x="355.0822" y="370.6907">1</text><text fill="#000000" font-family="sans-serif" font-size="13" lengthAdjust="spacing" textLength="23.0356" x="268.9712" y="444.8533">0..*</text></g><!--link User to KnowledgeBasePage--><g class="link" data-entity-1="ent0002" data-entity-2="ent0007" data-link-type="dependency" data-source-line="115" id="lnk24"><path codeLine="115" d="M483.04,351.23 C491.49,370.76 498.2381,385.8739 507.5481,405.4039" fill="none" id="User-to-KnowledgeBasePage" style="stroke:#181818;stroke-width:1;"/><polygon fill="#181818" points="510.13,410.82,509.8679,400.9746,507.9784,406.3066,502.6465,404.4171,510.13,410.82" style="stroke:#181818;stroke-width:1;"/><text fill="#000000" font-family="sans-serif" font-size="13" lengthAdjust="spacing" textLength="8.271" x="476.9801" y="370.7121">1</text><text fill="#000000" font-family="sans-serif" font-size="13" lengthAdjust="spacing" textLength="23.0356" x="481.9515" y="399.8517">0..*</text></g><!--link KnowledgeBasePage to User--><g class="link" data-entity-1="ent0007" data-entity-2="ent0002" data-link-type="dependency" data-source-line="118" id="lnk27"><path codeLine="118" d="M535.72,410.82 C527.29,391.29 520.5464,376.1739 511.2164,356.6439" fill="none" id="KnowledgeBasePage-to-User" style="stroke:#181818;stroke-width:1;"/><polygon fill="#181818" points="508.63,351.23,508.9003,361.0751,510.7853,355.7416,516.1189,357.6266,508.63,351.23" style="stroke:#181818;stroke-width:1;"/><text fill="#000000" font-family="sans-serif" font-size="13" lengthAdjust="spacing" textLength="6.5" x="527.1693" y="399.8517">*</text><text fill="#000000" font-family="sans-serif" font-size="13" lengthAdjust="spacing" textLength="8.271" x="504.3694" y="370.7121">1</text></g><!--link News to Comment--><g class="link" data-entity-1="ent0004" data-entity-2="ent0005" data-link-type="dependency" data-source-line="116" id="lnk25"><path codeLine="116" d="M253.5,298.28 C253.5,342.12 253.5,403.57 253.5,449.97" fill="none" id="News-to-Comment" style="stroke:#181818;stroke-width:1;"/><polygon fill="#181818" points="253.5,455.97,257.5,446.97,253.5,450.97,249.5,446.97,253.5,455.97" style="stroke:#181818;stroke-width:1;"/><text fill="#000000" font-family="sans-serif" font-size="13" lengthAdjust="spacing" textLength="8.271" x="244.9081" y="318.0433">1</text><text fill="#000000" font-family="sans-serif" font-size="13" lengthAdjust="spacing" textLength="23.0356" x="228.9845" y="444.9667">0..*</text></g><!--link KnowledgeBaseCategory to KnowledgeBasePage--><g class="link" data-entity-1="ent0006" data-entity-2="ent0007" data-link-type="dependency" data-source-line="117" id="lnk26"><path codeLine="117" d="M578.55,665.79 C579.69,647.5 580.2217,632.6197 580.0117,612.1897" fill="none" id="KnowledgeBaseCategory-to-KnowledgeBasePage" style="stroke:#181818;stroke-width:1;"/><polygon fill="#181818" points="579.95,606.19,576.0427,615.2306,580.0014,611.1897,584.0423,615.1484,579.95,606.19" style="stroke:#181818;stroke-width:1;"/><text fill="#000000" font-family="sans-serif" font-size="13" lengthAdjust="spacing" textLength="8.271" x="571.5476" y="655.028">1</text><text fill="#000000" font-family="sans-serif" font-size="13" lengthAdjust="spacing" textLength="23.0356" x="557.1034" y="625.6693">0..*</text></g><!--link KnowledgeBasePage to KnowledgeBaseCategory--><g class="link" data-entity-1="ent0007" data-entity-2="ent0006" data-link-type="dependency" data-source-line="119" id="lnk28"><path codeLine="119" d="M553.79,606.19 C553.6,626.62 553.6863,641.5104 554.7663,659.8004" fill="none" id="KnowledgeBasePage-to-KnowledgeBaseCategory" style="stroke:#181818;stroke-width:1;"/><polygon fill="#181818" points="555.12,665.79,558.5825,656.5699,554.8253,660.7987,550.5964,657.0414,555.12,665.79" style="stroke:#181818;stroke-width:1;"/><text fill="#000000" font-family="sans-serif" font-size="13" lengthAdjust="spacing" textLength="6.5" x="546.718" y="625.6693">*</text><text fill="#000000" font-family="sans-serif" font-size="13" lengthAdjust="spacing" textLength="24.8066" x="528.3197" y="655.028">0..1</text></g><!--link FinReport to Supplier--><g class="link" data-entity-1="ent0015" data-entity-2="ent0011" data-link-type="dependency" data-source-line="120" id="lnk29"><path codeLine="120" d="M1953.76,96.39 C1965.5,132.5 1980.0654,177.3238 1991.0154,211.0138" fill="none" id="FinReport-to-Supplier" style="stroke:#181818;stroke-width:1;"/><polygon fill="#181818" points="1992.87,216.72,1993.8922,206.9243,1991.3245,211.9649,1986.2839,209.3972,1992.87,216.72" style="stroke:#181818;stroke-width:1;"/><text fill="#000000" font-family="sans-serif" font-size="13" lengthAdjust="spacing" textLength="6.5" x="1949.3889" y="115.8413">*</text><text fill="#000000" font-family="sans-serif" font-size="13" lengthAdjust="spacing" textLength="24.8066" x="1964.7611" y="205.9475">0..1</text></g><!--link FinReport to Spk--><g class="link" data-entity-1="ent0015" data-entity-2="ent0010" data-link-type="dependency" data-source-line="121" id="lnk30"><path codeLine="121" d="M1925.45,96.39 C1914.78,129.74 1902.0098,169.6758 1891.3398,202.9958" fill="none" id="FinReport-to-Spk" style="stroke:#181818;stroke-width:1;"/><polygon fill="#181818" points="1889.51,208.71,1896.0642,201.3586,1891.0349,203.9482,1888.4453,198.9189,1889.51,208.71" style="stroke:#181818;stroke-width:1;"/><text fill="#000000" font-family="sans-serif" font-size="13" lengthAdjust="spacing" textLength="6.5" x="1917.0978" y="115.8413">*</text><text fill="#000000" font-family="sans-serif" font-size="13" lengthAdjust="spacing" textLength="24.8066" x="1865.886" y="197.7885">0..1</text></g><!--link CalculationService to Variable--><g class="link" data-entity-1="ent0016" data-entity-2="ent0008" data-link-type="dependency" data-source-line="122" id="lnk31"><path codeLine="122" d="M1107.31,60.33 C1006.21,71.02 866.17,96.3 757.5,156 C740.3,165.45 728.4359,174.7406 714.5659,188.7206" fill="none" id="CalculationService-to-Variable" style="stroke:#181818;stroke-width:1;stroke-dasharray:7,7;"/><polygon fill="#181818" points="710.34,192.98,719.5184,189.4082,713.8615,189.4305,713.8392,183.7737,710.34,192.98" style="stroke:#181818;stroke-width:1;"/></g><!--link CalculationService to Nds--><g class="link" data-entity-1="ent0016" data-entity-2="ent0009" data-link-type="dependency" data-source-line="123" id="lnk32"><path codeLine="123" d="M1107.49,71.39 C1039.65,86.03 958.44,111.63 896.5,156 C877.41,169.67 864.808,185.2045 853.188,203.8945" fill="none" id="CalculationService-to-Nds" style="stroke:#181818;stroke-width:1;stroke-dasharray:7,7;"/><polygon fill="#181818" points="850.02,208.99,858.169,203.4588,852.66,204.7438,851.375,199.2348,850.02,208.99" style="stroke:#181818;stroke-width:1;"/></g><!--link CalculationService to Spk--><g class="link" data-entity-1="ent0016" data-entity-2="ent0010" data-link-type="dependency" data-source-line="124" id="lnk33"><path codeLine="124" d="M1371.79,64.81 C1516.68,80.31 1737.9,110.55 1808.5,156 C1828.39,168.81 1841.005,184.6325 1852.135,203.7825" fill="none" id="CalculationService-to-Spk" style="stroke:#181818;stroke-width:1;stroke-dasharray:7,7;"/><polygon fill="#181818" points="1855.15,208.97,1854.0859,199.1788,1852.6375,204.6471,1847.1692,203.1988,1855.15,208.97" style="stroke:#181818;stroke-width:1;"/></g><!--link CalculationService to CalculationRequestDTO--><g class="link" data-entity-1="ent0016" data-entity-2="ent0017" data-link-type="dependency" data-source-line="125" id="lnk34"><path codeLine="125" d="M1208.55,79.89 C1160.19,122.68 1072.8323,199.9827 1034.9723,233.5027" fill="none" id="CalculationService-to-CalculationRequestDTO" style="stroke:#181818;stroke-width:1;stroke-dasharray:7,7;"/><polygon fill="#181818" points="1030.48,237.48,1039.87,234.5089,1034.2236,234.1656,1034.5669,228.5191,1030.48,237.48" style="stroke:#181818;stroke-width:1;"/></g><!--link CalculationService to CalculationResultDTO--><g class="link" data-entity-1="ent0016" data-entity-2="ent0018" data-link-type="dependency" data-source-line="126" id="lnk35"><path codeLine="126" d="M1239.5,79.89 C1239.5,122.68 1239.5,197.96 1239.5,231.48" fill="none" id="CalculationService-to-CalculationResultDTO" style="stroke:#181818;stroke-width:1;stroke-dasharray:7,7;"/><polygon fill="#181818" points="1239.5,237.48,1243.5,228.48,1239.5,232.48,1235.5,228.48,1239.5,237.48" style="stroke:#181818;stroke-width:1;"/></g><!--link CalculationService to InnCalculationStrategy--><g class="link" data-entity-1="ent0016" data-entity-2="ent0019" data-link-type="dependency" data-source-line="127" id="lnk36"><path codeLine="127" d="M1270.04,79.89 C1317.75,122.68 1403.9135,199.9537 1441.2835,233.4737" fill="none" id="CalculationService-to-InnCalculationStrategy" style="stroke:#181818;stroke-width:1;stroke-dasharray:7,7;"/><polygon fill="#181818" points="1445.75,237.48,1441.7212,228.4929,1442.0279,234.1414,1436.3794,234.4482,1445.75,237.48" style="stroke:#181818;stroke-width:1;"/></g><!--link CalculationService to OooCalculationStrategy--><g class="link" data-entity-1="ent0016" data-entity-2="ent0020" data-link-type="dependency" data-source-line="128" id="lnk37"><path codeLine="128" d="M1368.23,79.57 C1432.84,96.24 1510.89,121.18 1575.5,156 C1616.76,178.23 1652.9948,211.9301 1673.8048,233.0101" fill="none" id="CalculationService-to-OooCalculationStrategy" style="stroke:#181818;stroke-width:1;stroke-dasharray:7,7;"/><polygon fill="#181818" points="1678.02,237.28,1674.5438,228.065,1674.5073,233.7218,1668.8506,233.6853,1678.02,237.28" style="stroke:#181818;stroke-width:1;"/></g><!--link CheckRole to User--><g class="link" data-entity-1="ent0021" data-entity-2="ent0002" data-link-type="dependency" data-source-line="129" id="lnk38"><path codeLine="129" d="M451.5,79.89 C451.5,99.79 451.5,122.01 451.5,149.88" fill="none" id="CheckRole-to-User" style="stroke:#181818;stroke-width:1;stroke-dasharray:7,7;"/><polygon fill="#181818" points="451.5,155.88,455.5,146.88,451.5,150.88,447.5,146.88,451.5,155.88" style="stroke:#181818;stroke-width:1;"/></g><?plantuml-src ZLJ1Rjim3BtxAuISqguDkdr0WJP5WM90MwJRheOYquaGML8fEe4txDydst9iDtBMIoBfFV8zKQJTJchBaHTCAExS7H7ATKdm98n-ax-1tIHRcG63mbB52YZMW2v96ZBxwG3PduInBpAhVpKleFw7WajLBwnd7Gms81hLW1jZDWg-vJnr812eFgE3INCko63gTNE91MGfRo0h1PK8yuic5kXkpudZqQS__zlPUMsfGqUWILALZZPKMMZDqROFVeQ36qPwQklN6o8VsJENfYZymUZYFZY8bBucONaI-LsRWu9i0_VSmP8JR0nMKL5VCy3Mv0RSy9AZ7AyUFMlwWw4W6RQzoDQGIPjwX82st1r_gF-Be-Hh1R5tttDL1ldIwwDtf-bORwh3sbrVzMnKT64oIBji5b2ColTcTp5LOI3FfP1ZRccjaf7sx1b6POze2l-SbkjgchW2Qv16FhkQ7ZaFo7Dods4-IjtIXYmNt8Q7SNOtYbbo9Kh5IVgP1DnB4QelmZdC1umLl9VWwE77oqKqGu_7C5Ug0VIazL2Ri6w8Ae0lnao3oos8tSfqVRBbEbCm3zfNRAcCywDwnUglWckCDX-JsTSPkxw-PRERnS8lmqIVOfUpRWoZsCcG9CruJsI8Z-L_KvvEukmoXFZGsjOvIdl1g7JIzyW7UjVLPnXsbqJQPR6uFKxk5EvdSGewapNUMPyXTwqsmPtelGdsH3FsRLYJwZVv1m00?></g></svg>