<?plantuml 1.2026.2?><svg xmlns="http://www.w3.org/2000/svg" xmlns:xlink="http://www.w3.org/1999/xlink" contentStyleType="text/css" data-diagram-type="DESCRIPTION" height="577px" preserveAspectRatio="none" style="width:535px;height:577px;background:#FFFFFF;" version="1.1" viewBox="0 0 535 577" width="535px" zoomAndPan="magnify"><defs/><g><!--cluster ????? ??????? ???????--><g class="cluster" data-qualified-name="..... ....... ......." data-source-line="14" id="ent0003"><rect fill="none" height="564" rx="2.5" ry="2.5" style="stroke:#181818;stroke-width:1;" width="246" x="283" y="7"/><text fill="#000000" font-family="sans-serif" font-size="14" font-weight="bold" lengthAdjust="spacing" textLength="206.5137" x="302.7432" y="21.9951">&#1054;&#1073;&#1097;&#1080;&#1077; &#1092;&#1091;&#1085;&#1082;&#1094;&#1080;&#1080; &#1089;&#1080;&#1089;&#1090;&#1077;&#1084;&#1099;</text></g><!--entity UC_Login--><g class="entity" data-qualified-name="..... ....... ........UC_Login" data-source-line="15" id="ent0004"><ellipse cx="405.8177" cy="58.9635" fill="#F1F1F1" rx="72.8177" ry="16.9635" style="stroke:#181818;stroke-width:0.5;"/><text fill="#000000" font-family="sans-serif" font-size="14" lengthAdjust="spacing" textLength="113.3945" x="349.1204" y="63.612">&#1042;&#1093;&#1086;&#1076; &#1074; &#1089;&#1080;&#1089;&#1090;&#1077;&#1084;&#1091;</text></g><!--entity UC_2FA--><g class="entity" data-qualified-name="..... ....... ........UC_2FA" data-source-line="16" id="ent0005"><ellipse cx="406.2391" cy="146.1478" fill="#F1F1F1" rx="81.2391" ry="18.6478" style="stroke:#181818;stroke-width:0.5;"/><text fill="#000000" font-family="sans-serif" font-size="14" lengthAdjust="spacing" textLength="133.5879" x="339.4452" y="150.7963">&#1055;&#1088;&#1086;&#1093;&#1086;&#1078;&#1076;&#1077;&#1085;&#1080;&#1077; 2FA</text></g><!--entity UC_Profile--><g class="entity" data-qualified-name="..... ....... ........UC_Profile" data-source-line="17" id="ent0006"><ellipse cx="406.134" cy="223.8268" fill="#F1F1F1" rx="107.134" ry="23.8268" style="stroke:#181818;stroke-width:0.5;"/><text fill="#000000" font-family="sans-serif" font-size="14" lengthAdjust="spacing" textLength="191.666" x="310.301" y="228.4752">&#1056;&#1077;&#1076;&#1072;&#1082;&#1090;&#1080;&#1088;&#1086;&#1074;&#1072;&#1085;&#1080;&#1077; &#1087;&#1088;&#1086;&#1092;&#1080;&#1083;&#1103;</text></g><!--entity UC_ViewNews--><g class="entity" data-qualified-name="..... ....... ........UC_ViewNews" data-source-line="18" id="ent0007"><ellipse cx="405.9002" cy="303.08" fill="#F1F1F1" rx="85.9002" ry="19.58" style="stroke:#181818;stroke-width:0.5;"/><text fill="#000000" font-family="sans-serif" font-size="14" lengthAdjust="spacing" textLength="144.3955" x="333.7024" y="307.7285">&#1055;&#1088;&#1086;&#1089;&#1084;&#1086;&#1090;&#1088; &#1085;&#1086;&#1074;&#1086;&#1089;&#1090;&#1077;&#1081;</text></g><!--entity UC_Comments--><g class="entity" data-qualified-name="..... ....... ........UC_Comments" data-source-line="19" id="ent0008"><ellipse cx="405.9223" cy="380.9845" fill="#F1F1F1" rx="105.4223" ry="23.4845" style="stroke:#181818;stroke-width:0.5;"/><text fill="#000000" font-family="sans-serif" font-size="14" lengthAdjust="spacing" textLength="187.9404" x="311.9521" y="385.6329">&#1050;&#1086;&#1084;&#1084;&#1077;&#1085;&#1090;&#1072;&#1088;&#1080;&#1080; &#1082; &#1085;&#1086;&#1074;&#1086;&#1089;&#1090;&#1103;&#1084;</text></g><!--entity UC_Likes--><g class="entity" data-qualified-name="..... ....... ........UC_Likes" data-source-line="20" id="ent0009"><ellipse cx="405.8258" cy="458.1652" fill="#F1F1F1" rx="78.8258" ry="18.1652" style="stroke:#181818;stroke-width:0.5;"/><text fill="#000000" font-family="sans-serif" font-size="14" lengthAdjust="spacing" textLength="127.9004" x="341.8756" y="462.8136">&#1054;&#1094;&#1077;&#1085;&#1082;&#1072; &#1085;&#1086;&#1074;&#1086;&#1089;&#1090;&#1077;&#1081;</text></g><!--entity UC_KB--><g class="entity" data-qualified-name="..... ....... ........UC_KB" data-source-line="21" id="ent0010"><ellipse cx="405.8428" cy="533.0686" fill="#F1F1F1" rx="95.8428" ry="21.5686" style="stroke:#181818;stroke-width:0.5;"/><text fill="#000000" font-family="sans-serif" font-size="14" lengthAdjust="spacing" textLength="166.8516" x="322.417" y="537.717">&#1056;&#1072;&#1073;&#1086;&#1090;&#1072; &#1089; &#1073;&#1072;&#1079;&#1086;&#1081; &#1079;&#1085;&#1072;&#1085;&#1080;&#1081;</text></g><!--entity User--><g class="entity" data-qualified-name="User" data-source-line="12" id="ent0002"><ellipse cx="121.0044" cy="288.7969" fill="#E9C46A" rx="16" ry="16" style="stroke:#A87600;stroke-width:0.5;"/><path d="M121.0044,308.7969 C125.0044,308.7969 128.0044,308.7969 132.0044,304.7969 C140.0044,304.7969 148.0044,312.7969 148.0044,320.7969 L148.0044,324.7969 C148.0044,328.7969 144.0044,332.7969 140.0044,332.7969 L102.0044,332.7969 C98.0044,332.7969 94.0044,328.7969 94.0044,324.7969 L94.0044,320.7969 C94.0044,312.7969 102.0044,304.7969 110.0044,304.7969 C114.0044,308.7969 117.0044,308.7969 121.0044,308.7969" fill="#E9C46A" style="stroke:#A87600;stroke-width:0.5;"/><text fill="#1F1F1F" font-family="sans-serif" font-size="14" lengthAdjust="spacing" textLength="230.0088" x="6" y="346.292">&#1040;&#1074;&#1090;&#1086;&#1088;&#1080;&#1079;&#1086;&#1074;&#1072;&#1085;&#1085;&#1099;&#1081; &#1087;&#1086;&#1083;&#1100;&#1079;&#1086;&#1074;&#1072;&#1090;&#1077;&#1083;&#1100;</text><text fill="#1F1F1F" font-family="sans-serif" font-size="14" font-style="italic" lengthAdjust="spacing" textLength="93.1533" x="74.4277" y="268.9951">&#171;Authorized&#187;</text></g><!--link User to UC_Login--><g class="link" data-entity-1="ent0002" data-entity-2="ent0004" data-link-type="dependency" data-source-line="24" id="lnk11"><path d="M149.26,255.82 C176.3,212.67 221.39,149.68 275,110 C299.07,92.19 324.4505,81.5032 350.1905,73.3432" fill="none" id="User-to-UC_Login" style="stroke:#E9C46A;stroke-width:1;"/><polygon fill="#E9C46A" points="355.91,71.53,346.122,70.4368,351.1438,73.041,348.5396,78.0627,355.91,71.53" style="stroke:#E9C46A;stroke-width:1;"/></g><!--link User to UC_2FA--><g class="link" data-entity-1="ent0002" data-entity-2="ent0005" data-link-type="dependency" data-source-line="25" id="lnk12"><path d="M171.2,255.72 C199.59,230.69 237.1,201.23 275,182 C296.2,171.24 315.2016,164.8251 337.4416,159.2251" fill="none" id="User-to-UC_2FA" style="stroke:#E9C46A;stroke-width:1;"/><polygon fill="#E9C46A" points="343.26,157.76,333.5557,156.0787,338.4113,158.9809,335.5091,163.8365,343.26,157.76" style="stroke:#E9C46A;stroke-width:1;"/></g><!--link User to UC_Profile--><g class="link" data-entity-1="ent0002" data-entity-2="ent0006" data-link-type="dependency" data-source-line="26" id="lnk13"><path d="M236.29,271.1 C270.96,261.42 302.1109,252.7232 332.5609,244.2232" fill="none" id="User-to-UC_Profile" style="stroke:#E9C46A;stroke-width:1;"/><polygon fill="#E9C46A" points="338.34,242.61,328.5959,241.1771,333.5241,243.9543,330.7469,248.8825,338.34,242.61" style="stroke:#E9C46A;stroke-width:1;"/></g><!--link User to UC_ViewNews--><g class="link" data-entity-1="ent0002" data-entity-2="ent0007" data-link-type="dependency" data-source-line="27" id="lnk14"><path d="M236.29,303 C264.21,303 287.6,303 313.88,303" fill="none" id="User-to-UC_ViewNews" style="stroke:#E9C46A;stroke-width:1;"/><polygon fill="#E9C46A" points="319.88,303,310.88,299,314.88,303,310.88,307,319.88,303" style="stroke:#E9C46A;stroke-width:1;"/></g><!--link User to UC_Comments--><g class="link" data-entity-1="ent0002" data-entity-2="ent0008" data-link-type="dependency" data-source-line="28" id="lnk15"><path d="M236.29,334.5 C271.11,344.1 302.4356,352.7361 332.9556,361.1461" fill="none" id="User-to-UC_Comments" style="stroke:#E9C46A;stroke-width:1;"/><polygon fill="#E9C46A" points="338.74,362.74,331.126,356.4928,333.9197,361.4117,329.0008,364.2054,338.74,362.74" style="stroke:#E9C46A;stroke-width:1;"/></g><!--link User to UC_Likes--><g class="link" data-entity-1="ent0002" data-entity-2="ent0009" data-link-type="dependency" data-source-line="29" id="lnk16"><path d="M172,350.05 C200.35,374.53 237.56,403.19 275,422 C296.76,432.93 316.4772,439.4827 339.1272,445.1127" fill="none" id="User-to-UC_Likes" style="stroke:#E9C46A;stroke-width:1;"/><polygon fill="#E9C46A" points="344.95,446.56,337.1807,440.5071,340.0977,445.3539,335.2509,448.2709,344.95,446.56" style="stroke:#E9C46A;stroke-width:1;"/></g><!--link User to UC_KB--><g class="link" data-entity-1="ent0002" data-entity-2="ent0010" data-link-type="dependency" data-source-line="30" id="lnk17"><path d="M148.76,350.36 C175.46,393.49 220.31,455.93 275,493 C292.2,504.66 307.1944,511.3014 327.0044,517.2614" fill="none" id="User-to-UC_KB" style="stroke:#E9C46A;stroke-width:1;"/><polygon fill="#E9C46A" points="332.75,518.99,325.284,512.5667,327.962,517.5495,322.9792,520.2275,332.75,518.99" style="stroke:#E9C46A;stroke-width:1;"/></g><!--link UC_Login to UC_2FA--><g class="link" data-entity-1="ent0004" data-entity-2="ent0005" data-link-type="dependency" data-source-line="32" id="lnk18"><path d="M406,76.07 C406,90.76 406,105.93 406,121.12" fill="none" id="UC_Login-to-UC_2FA" style="stroke:#181818;stroke-width:1;stroke-dasharray:7,7;"/><polygon fill="#181818" points="406,127.12,410,118.12,406,122.12,402,118.12,406,127.12" style="stroke:#181818;stroke-width:1;"/><text fill="#000000" font-family="sans-serif" font-size="13" lengthAdjust="spacing" textLength="63.0068" x="363" y="106.3169">&#171;include&#187;</text></g><?plantuml-src TL9DQzj04BthLmpkEIKf9VqW21nJNnfAeRINKieYhUN5iZRiofYs5E8aBPG4Kdhi8UbFK8pJA8xj_8NPVzJPjUH6gSg2qCwRz-RDpCQyaq8gGOcecq8e50zI8HDFzqIoonJh0mjIgLwb7s8ERCYrxFDRu2uBUYpYIzXoMHB5jnDqbuLoA988EYpMtBihlBNL7AHTgSH77le-VF80jaapKdAGX2qPImNtdZrfFTniMaIgaAiYsdpyQ7DzdQ9jcQH5RADjZ_VPyvmuDF0xZiq-BimUvdY92nnZXdEScoEy0hoXmBKvBW5AlB3t1Z0DhpLNK7NdUQiEIVaKpyqtKhq0SsWEI7Hglj8r1pF2t8oSsCmSDLnF0yq3fYtjX_b2rIQ0ushYmR9gw_sEZ4HIePoH-uMZ_SO99SzTrGVjPacXtmhX5oLDgD4fQUUMNBHjQNZZr0xfScrEIeMNIdO4BUxViYESqNVVx049MA55OVcgvBuHVFY23tM5_9DoPtJ8BMLdRluvuBIYOavmLggqPB_FaxIgSaeZjVrECVjl-HtHu_fE-ncUMzF4CYEW_yojc3P-IIhBIQpupxVjUt7hNdjRlBLtQ_xVLTH2TkIrG3d9Md0rgbfqDO9wCwxFMeXQy4gxSB_q1q_f_OeaY0SXz_q_?></g></svg>