<?plantuml 1.2026.2?><svg xmlns="http://www.w3.org/2000/svg" xmlns:xlink="http://www.w3.org/1999/xlink" contentStyleType="text/css" data-diagram-type="DESCRIPTION" height="2313px" preserveAspectRatio="none" style="width:671px;height:2313px;background:#FFFFFF;" version="1.1" viewBox="0 0 671 2313" width="671px" zoomAndPan="magnify"><defs/><g><!--cluster ??????? ?????????????? ???????--><g class="cluster" data-qualified-name="....... .............. ......." data-source-line="38" id="ent0007"><rect fill="none" height="1347" rx="2.5" ry="2.5" style="stroke:#181818;stroke-width:1;" width="320" x="345" y="7"/><text fill="#000000" font-family="sans-serif" font-size="14" font-weight="bold" lengthAdjust="spacing" textLength="280.8203" x="364.5898" y="21.9951">&#1057;&#1077;&#1090;&#1077;&#1074;&#1072;&#1103; &#1080;&#1085;&#1092;&#1086;&#1088;&#1084;&#1072;&#1094;&#1080;&#1086;&#1085;&#1085;&#1072;&#1103; &#1089;&#1080;&#1089;&#1090;&#1077;&#1084;&#1072;</text></g><!--entity UC_Login--><g class="entity" data-qualified-name="....... .............. ........UC_Login" data-source-line="39" id="ent0008"><ellipse cx="504.8177" cy="936.9635" fill="#F1F1F1" rx="72.8177" ry="16.9635" style="stroke:#181818;stroke-width:0.5;"/><text fill="#000000" font-family="sans-serif" font-size="14" lengthAdjust="spacing" textLength="113.3945" x="448.1204" y="941.612">&#1042;&#1093;&#1086;&#1076; &#1074; &#1089;&#1080;&#1089;&#1090;&#1077;&#1084;&#1091;</text></g><!--entity UC_2FA--><g class="entity" data-qualified-name="....... .............. ........UC_2FA" data-source-line="40" id="ent0009"><ellipse cx="505.2391" cy="850.1478" fill="#F1F1F1" rx="81.2391" ry="18.6478" style="stroke:#181818;stroke-width:0.5;"/><text fill="#000000" font-family="sans-serif" font-size="14" lengthAdjust="spacing" textLength="133.5879" x="438.4452" y="854.7963">&#1055;&#1088;&#1086;&#1093;&#1086;&#1078;&#1076;&#1077;&#1085;&#1080;&#1077; 2FA</text></g><!--entity UC_Profile--><g class="entity" data-qualified-name="....... .............. ........UC_Profile" data-source-line="41" id="ent0010"><ellipse cx="505.134" cy="771.8268" fill="#F1F1F1" rx="107.134" ry="23.8268" style="stroke:#181818;stroke-width:0.5;"/><text fill="#000000" font-family="sans-serif" font-size="14" lengthAdjust="spacing" textLength="191.666" x="409.301" y="776.4752">&#1056;&#1077;&#1076;&#1072;&#1082;&#1090;&#1080;&#1088;&#1086;&#1074;&#1072;&#1085;&#1080;&#1077; &#1087;&#1088;&#1086;&#1092;&#1080;&#1083;&#1103;</text></g><!--entity UC_ViewNews--><g class="entity" data-qualified-name="....... .............. ........UC_ViewNews" data-source-line="42" id="ent0011"><ellipse cx="504.9002" cy="1091.08" fill="#F1F1F1" rx="85.9002" ry="19.58" style="stroke:#181818;stroke-width:0.5;"/><text fill="#000000" font-family="sans-serif" font-size="14" lengthAdjust="spacing" textLength="144.3955" x="432.7024" y="1095.7285">&#1055;&#1088;&#1086;&#1089;&#1084;&#1086;&#1090;&#1088; &#1085;&#1086;&#1074;&#1086;&#1089;&#1090;&#1077;&#1081;</text></g><!--entity UC_Comments--><g class="entity" data-qualified-name="....... .............. ........UC_Comments" data-source-line="43" id="ent0012"><ellipse cx="504.9223" cy="1012.9845" fill="#F1F1F1" rx="105.4223" ry="23.4845" style="stroke:#181818;stroke-width:0.5;"/><text fill="#000000" font-family="sans-serif" font-size="14" lengthAdjust="spacing" textLength="187.9404" x="410.9521" y="1017.6329">&#1050;&#1086;&#1084;&#1084;&#1077;&#1085;&#1090;&#1072;&#1088;&#1080;&#1080; &#1082; &#1085;&#1086;&#1074;&#1086;&#1089;&#1090;&#1103;&#1084;</text></g><!--entity UC_Likes--><g class="entity" data-qualified-name="....... .............. ........UC_Likes" data-source-line="44" id="ent0013"><ellipse cx="504.8258" cy="1164.1652" fill="#F1F1F1" rx="78.8258" ry="18.1652" style="stroke:#181818;stroke-width:0.5;"/><text fill="#000000" font-family="sans-serif" font-size="14" lengthAdjust="spacing" textLength="127.9004" x="440.8756" y="1168.8136">&#1054;&#1094;&#1077;&#1085;&#1082;&#1072; &#1085;&#1086;&#1074;&#1086;&#1089;&#1090;&#1077;&#1081;</text></g><!--entity UC_Users--><g class="entity" data-qualified-name="....... .............. ........UC_Users" data-source-line="45" id="ent0014"><ellipse cx="504.9171" cy="421.8834" fill="#F1F1F1" rx="117.4171" ry="25.8834" style="stroke:#181818;stroke-width:0.5;"/><text fill="#000000" font-family="sans-serif" font-size="14" lengthAdjust="spacing" textLength="213.835" x="397.9996" y="426.5319">&#1059;&#1087;&#1088;&#1072;&#1074;&#1083;&#1077;&#1085;&#1080;&#1077; &#1087;&#1086;&#1083;&#1100;&#1079;&#1086;&#1074;&#1072;&#1090;&#1077;&#1083;&#1103;&#1084;&#1080;</text></g><!--entity UC_Refs--><g class="entity" data-qualified-name="....... .............. ........UC_Refs" data-source-line="46" id="ent0015"><ellipse cx="505.1004" cy="504.9201" fill="#F1F1F1" rx="97.6004" ry="21.9201" style="stroke:#181818;stroke-width:0.5;"/><text fill="#000000" font-family="sans-serif" font-size="14" lengthAdjust="spacing" textLength="170.7549" x="419.7229" y="509.5685">&#1042;&#1077;&#1076;&#1077;&#1085;&#1080;&#1077; &#1089;&#1087;&#1088;&#1072;&#1074;&#1086;&#1095;&#1085;&#1080;&#1082;&#1086;&#1074;</text></g><!--entity UC_Calc--><g class="entity" data-qualified-name="....... .............. ........UC_Calc" data-source-line="47" id="ent0016"><ellipse cx="505.1406" cy="235.0281" fill="#F1F1F1" rx="90.6406" ry="20.5281" style="stroke:#181818;stroke-width:0.5;"/><text fill="#000000" font-family="sans-serif" font-size="14" lengthAdjust="spacing" textLength="155.1895" x="427.5458" y="239.6765">&#1042;&#1099;&#1087;&#1086;&#1083;&#1085;&#1077;&#1085;&#1080;&#1077; &#1088;&#1072;&#1089;&#1095;&#1077;&#1090;&#1072;</text></g><!--entity UC_Draft--><g class="entity" data-qualified-name="....... .............. ........UC_Draft" data-source-line="48" id="ent0017"><ellipse cx="505.0447" cy="334.0089" fill="#F1F1F1" rx="123.0447" ry="27.0089" style="stroke:#181818;stroke-width:0.5;"/><text fill="#000000" font-family="sans-serif" font-size="14" lengthAdjust="spacing" textLength="225.8389" x="392.1252" y="338.6574">&#1057;&#1086;&#1093;&#1088;&#1072;&#1085;&#1077;&#1085;&#1080;&#1077; &#1095;&#1077;&#1088;&#1085;&#1086;&#1074;&#1080;&#1082;&#1072; &#1086;&#1090;&#1095;&#1077;&#1090;&#1072;</text></g><!--entity UC_Report--><g class="entity" data-qualified-name="....... .............. ........UC_Report" data-source-line="49" id="ent0018"><ellipse cx="504.9482" cy="69.1896" fill="#F1F1F1" rx="121.4482" ry="26.6896" style="stroke:#181818;stroke-width:0.5;"/><text fill="#000000" font-family="sans-serif" font-size="14" lengthAdjust="spacing" textLength="222.4414" x="393.7275" y="73.8381">&#1057;&#1086;&#1093;&#1088;&#1072;&#1085;&#1077;&#1085;&#1080;&#1077; &#1080;&#1090;&#1086;&#1075;&#1086;&#1074;&#1086;&#1075;&#1086; &#1086;&#1090;&#1095;&#1077;&#1090;&#1072;</text></g><!--entity UC_History--><g class="entity" data-qualified-name="....... .............. ........UC_History" data-source-line="50" id="ent0019"><ellipse cx="504.9459" cy="155.0892" fill="#F1F1F1" rx="110.9459" ry="24.5892" style="stroke:#181818;stroke-width:0.5;"/><text fill="#000000" font-family="sans-serif" font-size="14" lengthAdjust="spacing" textLength="199.9238" x="404.984" y="159.7376">&#1055;&#1088;&#1086;&#1089;&#1084;&#1086;&#1090;&#1088; &#1080;&#1089;&#1090;&#1086;&#1088;&#1080;&#1080; &#1086;&#1090;&#1095;&#1077;&#1090;&#1086;&#1074;</text></g><!--entity UC_Fin--><g class="entity" data-qualified-name="....... .............. ........UC_Fin" data-source-line="51" id="ent0020"><ellipse cx="505.0509" cy="589.2102" fill="#F1F1F1" rx="121.5509" ry="26.7102" style="stroke:#181818;stroke-width:0.5;"/><text fill="#000000" font-family="sans-serif" font-size="14" lengthAdjust="spacing" textLength="222.6602" x="393.7208" y="593.8586">&#1042;&#1077;&#1076;&#1077;&#1085;&#1080;&#1077; &#1092;&#1080;&#1085;&#1072;&#1085;&#1089;&#1086;&#1074;&#1099;&#1093; &#1086;&#1090;&#1095;&#1077;&#1090;&#1086;&#1074;</text></g><!--entity UC_NewsEdit--><g class="entity" data-qualified-name="....... .............. ........UC_NewsEdit" data-source-line="52" id="ent0021"><ellipse cx="505.2265" cy="1238.1453" fill="#F1F1F1" rx="93.7265" ry="21.1453" style="stroke:#181818;stroke-width:0.5;"/><text fill="#000000" font-family="sans-serif" font-size="14" lengthAdjust="spacing" textLength="162.1279" x="424.1625" y="1242.7937">&#1055;&#1091;&#1073;&#1083;&#1080;&#1082;&#1072;&#1094;&#1080;&#1103; &#1085;&#1086;&#1074;&#1086;&#1089;&#1090;&#1077;&#1081;</text></g><!--entity UC_KB--><g class="entity" data-qualified-name="....... .............. ........UC_KB" data-source-line="53" id="ent0022"><ellipse cx="504.8428" cy="1316.0686" fill="#F1F1F1" rx="95.8428" ry="21.5686" style="stroke:#181818;stroke-width:0.5;"/><text fill="#000000" font-family="sans-serif" font-size="14" lengthAdjust="spacing" textLength="166.8516" x="421.417" y="1320.717">&#1056;&#1072;&#1073;&#1086;&#1090;&#1072; &#1089; &#1073;&#1072;&#1079;&#1086;&#1081; &#1079;&#1085;&#1072;&#1085;&#1080;&#1081;</text></g><!--entity UC_KBCat--><g class="entity" data-qualified-name="....... .............. ........UC_KBCat" data-source-line="54" id="ent0023"><ellipse cx="504.9218" cy="682.1844" fill="#F1F1F1" rx="143.9218" ry="31.1844" style="stroke:#181818;stroke-width:0.5;"/><text fill="#000000" font-family="sans-serif" font-size="14" lengthAdjust="spacing" textLength="269.8076" x="370.018" y="686.8328">&#1059;&#1087;&#1088;&#1072;&#1074;&#1083;&#1077;&#1085;&#1080;&#1077; &#1088;&#1072;&#1079;&#1076;&#1077;&#1083;&#1072;&#1084;&#1080; &#1073;&#1072;&#1079;&#1099; &#1079;&#1085;&#1072;&#1085;&#1080;&#1081;</text></g><!--entity Admin--><g class="entity" data-qualified-name="Admin" data-source-line="32" id="ent0002"><ellipse cx="121.0474" cy="1170.7969" fill="#F4A261" rx="16" ry="16" style="stroke:#9C4A00;stroke-width:0.5;"/><path d="M121.0474,1190.7969 C125.0474,1190.7969 128.0474,1190.7969 132.0474,1186.7969 C140.0474,1186.7969 148.0474,1194.7969 148.0474,1202.7969 L148.0474,1206.7969 C148.0474,1210.7969 144.0474,1214.7969 140.0474,1214.7969 L102.0474,1214.7969 C98.0474,1214.7969 94.0474,1210.7969 94.0474,1206.7969 L94.0474,1202.7969 C94.0474,1194.7969 102.0474,1186.7969 110.0474,1186.7969 C114.0474,1190.7969 117.0474,1190.7969 121.0474,1190.7969" fill="#F4A261" style="stroke:#9C4A00;stroke-width:0.5;"/><text fill="#1F1F1F" font-family="sans-serif" font-size="14" lengthAdjust="spacing" textLength="116.0947" x="63" y="1228.292">&#1040;&#1076;&#1084;&#1080;&#1085;&#1080;&#1089;&#1090;&#1088;&#1072;&#1090;&#1086;&#1088;</text><text fill="#1F1F1F" font-family="sans-serif" font-size="14" font-style="italic" lengthAdjust="spacing" textLength="62.1455" x="89.9746" y="1150.9951">&#171;Admin&#187;</text></g><!--entity Manager--><g class="entity" data-qualified-name="Manager" data-source-line="33" id="ent0003"><ellipse cx="120.8237" cy="470.7969" fill="#2A9D8F" rx="16" ry="16" style="stroke:#0B5D56;stroke-width:0.5;"/><path d="M120.8237,490.7969 C124.8237,490.7969 127.8237,490.7969 131.8237,486.7969 C139.8237,486.7969 147.8237,494.7969 147.8237,502.7969 L147.8237,506.7969 C147.8237,510.7969 143.8237,514.7969 139.8237,514.7969 L101.8237,514.7969 C97.8237,514.7969 93.8237,510.7969 93.8237,506.7969 L93.8237,502.7969 C93.8237,494.7969 101.8237,486.7969 109.8237,486.7969 C113.8237,490.7969 116.8237,490.7969 120.8237,490.7969" fill="#2A9D8F" style="stroke:#0B5D56;stroke-width:0.5;"/><text fill="#FFFFFF" font-family="sans-serif" font-size="14" lengthAdjust="spacing" textLength="78.251" x="81.6982" y="528.292">&#1052;&#1077;&#1085;&#1077;&#1076;&#1078;&#1077;&#1088;</text><text fill="#FFFFFF" font-family="sans-serif" font-size="14" font-style="italic" lengthAdjust="spacing" textLength="78.6475" x="81.5" y="450.9951">&#171;Manager&#187;</text></g><!--entity Finance--><g class="entity" data-qualified-name="Finance" data-source-line="34" id="ent0004"><ellipse cx="121.2471" cy="982.7969" fill="#457B9D" rx="16" ry="16" style="stroke:#1D3557;stroke-width:0.5;"/><path d="M121.2471,1002.7969 C125.2471,1002.7969 128.2471,1002.7969 132.2471,998.7969 C140.2471,998.7969 148.2471,1006.7969 148.2471,1014.7969 L148.2471,1018.7969 C148.2471,1022.7969 144.2471,1026.7969 140.2471,1026.7969 L102.2471,1026.7969 C98.2471,1026.7969 94.2471,1022.7969 94.2471,1018.7969 L94.2471,1014.7969 C94.2471,1006.7969 102.2471,998.7969 110.2471,998.7969 C114.2471,1002.7969 117.2471,1002.7969 121.2471,1002.7969" fill="#457B9D" style="stroke:#1D3557;stroke-width:0.5;"/><text fill="#FFFFFF" font-family="sans-serif" font-size="14" lengthAdjust="spacing" textLength="167.4941" x="37.5" y="1040.292">&#1060;&#1080;&#1085;&#1072;&#1085;&#1089;&#1086;&#1074;&#1099;&#1081; &#1076;&#1080;&#1088;&#1077;&#1082;&#1090;&#1086;&#1088;</text><text fill="#FFFFFF" font-family="sans-serif" font-size="14" font-style="italic" lengthAdjust="spacing" textLength="71.8594" x="85.3174" y="962.9951">&#171;Finance&#187;</text></g><!--entity Redactor--><g class="entity" data-qualified-name="Redactor" data-source-line="35" id="ent0005"><ellipse cx="120.7979" cy="1430.7969" fill="#E76F51" rx="16" ry="16" style="stroke:#9B2226;stroke-width:0.5;"/><path d="M120.7979,1450.7969 C124.7979,1450.7969 127.7979,1450.7969 131.7979,1446.7969 C139.7979,1446.7969 147.7979,1454.7969 147.7979,1462.7969 L147.7979,1466.7969 C147.7979,1470.7969 143.7979,1474.7969 139.7979,1474.7969 L101.7979,1474.7969 C97.7979,1474.7969 93.7979,1470.7969 93.7979,1466.7969 L93.7979,1462.7969 C93.7979,1454.7969 101.7979,1446.7969 109.7979,1446.7969 C113.7979,1450.7969 116.7979,1450.7969 120.7979,1450.7969" fill="#E76F51" style="stroke:#9B2226;stroke-width:0.5;"/><text fill="#FFFFFF" font-family="sans-serif" font-size="14" lengthAdjust="spacing" textLength="69.3779" x="86.1089" y="1488.292">&#1056;&#1077;&#1076;&#1072;&#1082;&#1090;&#1086;&#1088;</text><text fill="#FFFFFF" font-family="sans-serif" font-size="14" font-style="italic" lengthAdjust="spacing" textLength="80.5957" x="80.5" y="1410.9951">&#171;Redactor&#187;</text></g><!--entity User--><g class="entity" data-qualified-name="User" data-source-line="36" id="ent0006"><ellipse cx="121.0044" cy="1559.7969" fill="#E9C46A" rx="16" ry="16" style="stroke:#A87600;stroke-width:0.5;"/><path d="M121.0044,1579.7969 C125.0044,1579.7969 128.0044,1579.7969 132.0044,1575.7969 C140.0044,1575.7969 148.0044,1583.7969 148.0044,1591.7969 L148.0044,1595.7969 C148.0044,1599.7969 144.0044,1603.7969 140.0044,1603.7969 L102.0044,1603.7969 C98.0044,1603.7969 94.0044,1599.7969 94.0044,1595.7969 L94.0044,1591.7969 C94.0044,1583.7969 102.0044,1575.7969 110.0044,1575.7969 C114.0044,1579.7969 117.0044,1579.7969 121.0044,1579.7969" fill="#E9C46A" style="stroke:#A87600;stroke-width:0.5;"/><text fill="#1F1F1F" font-family="sans-serif" font-size="14" lengthAdjust="spacing" textLength="230.0088" x="6" y="1617.292">&#1040;&#1074;&#1090;&#1086;&#1088;&#1080;&#1079;&#1086;&#1074;&#1072;&#1085;&#1085;&#1099;&#1081; &#1087;&#1086;&#1083;&#1100;&#1079;&#1086;&#1074;&#1072;&#1090;&#1077;&#1083;&#1100;</text><text fill="#1F1F1F" font-family="sans-serif" font-size="14" font-style="italic" lengthAdjust="spacing" textLength="49.1914" x="96.4087" y="1539.9951">&#171;User&#187;</text></g><!--link Admin to UC_Login--><g class="link" data-entity-1="ent0002" data-entity-2="ent0008" data-link-type="dependency" data-source-line="57" id="lnk24"><path d="M179.47,1164.88 C228.04,1144.63 294.98,1108.39 329,1053 C338.47,1037.59 324.92,985.47 337,972 C360.84,945.43 393.255,936.5446 427.225,934.1346" fill="none" id="Admin-to-UC_Login" style="stroke:#F4A261;stroke-width:1;"/><polygon fill="#F4A261" points="433.21,933.71,423.9495,930.3569,428.2225,934.0638,424.5156,938.3369,433.21,933.71" style="stroke:#F4A261;stroke-width:1;"/></g><!--link Admin to UC_2FA--><g class="link" data-entity-1="ent0002" data-entity-2="ent0009" data-link-type="dependency" data-source-line="58" id="lnk25"><path d="M167.54,1137.72 C188.88,1115 214.32,1087.09 236,1061 C280.03,1008.02 300.03,999.5 329,937 C335.71,922.53 326.16,913.71 337,902 C360.62,876.49 390.6431,864.599 423.1131,857.919" fill="none" id="Admin-to-UC_2FA" style="stroke:#F4A261;stroke-width:1;"/><polygon fill="#F4A261" points="428.99,856.71,419.3686,854.6056,424.0926,857.7175,420.9807,862.4415,428.99,856.71" style="stroke:#F4A261;stroke-width:1;"/></g><!--link Admin to UC_Profile--><g class="link" data-entity-1="ent0002" data-entity-2="ent0010" data-link-type="dependency" data-source-line="59" id="lnk26"><path d="M178.05,1137.77 C199.61,1116.54 222.31,1089.79 236,1061 C275.74,977.45 214.07,931.58 266,855 C286.45,824.84 303.23,827.69 337,814 C364.29,802.94 389.4623,795.566 417.3023,788.956" fill="none" id="Admin-to-UC_Profile" style="stroke:#F4A261;stroke-width:1;"/><polygon fill="#F4A261" points="423.14,787.57,413.4594,785.7572,418.2752,788.725,415.3075,793.5409,423.14,787.57" style="stroke:#F4A261;stroke-width:1;"/></g><!--link Admin to UC_ViewNews--><g class="link" data-entity-1="ent0002" data-entity-2="ent0011" data-link-type="dependency" data-source-line="60" id="lnk27"><path d="M156.96,1232.01 C183.26,1269.94 217.77,1325.73 236,1380 C253.88,1433.25 223.99,1593.71 266,1631 C286.94,1649.59 309.04,1650.64 329,1631 C348.92,1611.4 319.33,1149.66 337,1128 C356.81,1103.73 382.7011,1093.9618 413.2911,1089.9418" fill="none" id="Admin-to-UC_ViewNews" style="stroke:#F4A261;stroke-width:1;"/><polygon fill="#F4A261" points="419.24,1089.16,409.7955,1086.3668,414.2826,1089.8115,410.8379,1094.2986,419.24,1089.16" style="stroke:#F4A261;stroke-width:1;"/></g><!--link Admin to UC_Comments--><g class="link" data-entity-1="ent0002" data-entity-2="ent0012" data-link-type="dependency" data-source-line="61" id="lnk28"><path d="M179.04,1229.95 C225.03,1260.48 288.51,1288.87 329,1250 C344.72,1234.91 323.2,1070.88 337,1054 C352.97,1034.47 370.7686,1024.823 395.2486,1018.713" fill="none" id="Admin-to-UC_Comments" style="stroke:#F4A261;stroke-width:1;"/><polygon fill="#F4A261" points="401.07,1017.26,391.3692,1015.5585,396.2188,1018.4708,393.3065,1023.3204,401.07,1017.26" style="stroke:#F4A261;stroke-width:1;"/></g><!--link Admin to UC_Likes--><g class="link" data-entity-1="ent0002" data-entity-2="ent0013" data-link-type="dependency" data-source-line="62" id="lnk29"><path d="M158.04,1232.14 C184.74,1269.92 219.28,1325.45 236,1380 C296.6,1577.76 181.83,1981.34 329,1836 C341.59,1823.57 325.76,1212.67 337,1199 C358.64,1172.69 388.5606,1163.4568 421.5406,1160.7168" fill="none" id="Admin-to-UC_Likes" style="stroke:#F4A261;stroke-width:1;"/><polygon fill="#F4A261" points="427.52,1160.22,418.2197,1156.9789,422.5372,1160.634,418.8821,1164.9514,427.52,1160.22" style="stroke:#F4A261;stroke-width:1;"/></g><!--link Admin to UC_Users--><g class="link" data-entity-1="ent0002" data-entity-2="ent0014" data-link-type="dependency" data-source-line="63" id="lnk30"><path d="M179.29,1138.33 C201.05,1117.19 223.56,1090.35 236,1061 C280.57,955.86 223.32,653.92 266,548 C284.14,502.98 295.81,490.69 337,465 C357.96,451.93 376.9499,444.3559 400.9299,438.0059" fill="none" id="Admin-to-UC_Users" style="stroke:#F4A261;stroke-width:1;"/><polygon fill="#F4A261" points="406.73,436.47,397.0059,434.9071,401.8966,437.7499,399.0538,442.6406,406.73,436.47" style="stroke:#F4A261;stroke-width:1;"/></g><!--link Admin to UC_Refs--><g class="link" data-entity-1="ent0002" data-entity-2="ent0015" data-link-type="dependency" data-source-line="64" id="lnk31"><path d="M179.19,1138.29 C200.93,1117.14 223.46,1090.31 236,1061 C276.05,967.44 219.77,694.67 266,604 C293.85,549.38 354.1642,526.0349 409.6942,515.0449" fill="none" id="Admin-to-UC_Refs" style="stroke:#F4A261;stroke-width:1;"/><polygon fill="#F4A261" points="415.58,513.88,405.9747,511.7034,410.6751,514.8507,407.5278,519.5512,415.58,513.88" style="stroke:#F4A261;stroke-width:1;"/></g><!--link Admin to UC_Fin--><g class="link" data-entity-1="ent0002" data-entity-2="ent0020" data-link-type="dependency" data-source-line="65" id="lnk32"><path d="M179.08,1138.24 C200.8,1117.08 223.35,1090.26 236,1061 C272.35,976.95 207.26,720.26 266,650 C294.87,615.48 334.4445,600.0531 377.9645,592.6731" fill="none" id="Admin-to-UC_Fin" style="stroke:#F4A261;stroke-width:1;"/><polygon fill="#F4A261" points="383.88,591.67,374.3379,589.231,378.9504,592.506,375.6754,597.1184,383.88,591.67" style="stroke:#F4A261;stroke-width:1;"/></g><!--link Admin to UC_NewsEdit--><g class="link" data-entity-1="ent0002" data-entity-2="ent0021" data-link-type="dependency" data-source-line="66" id="lnk33"><path d="M158.12,1232.12 C184.86,1269.88 219.42,1325.41 236,1380 C252.01,1432.73 225.88,1837.24 266,1875 C286.39,1894.19 309.07,1894.67 329,1875 C340.83,1863.33 326.59,1289.95 337,1277 C355.01,1254.62 377.2657,1244.6274 405.3657,1239.5474" fill="none" id="Admin-to-UC_NewsEdit" style="stroke:#F4A261;stroke-width:1;"/><polygon fill="#F4A261" points="411.27,1238.48,401.702,1236.1449,406.3498,1239.3695,403.1252,1244.0173,411.27,1238.48" style="stroke:#F4A261;stroke-width:1;"/></g><!--link Admin to UC_KB--><g class="link" data-entity-1="ent0002" data-entity-2="ent0022" data-link-type="dependency" data-source-line="67" id="lnk34"><path d="M158.39,1232.03 C185.28,1269.75 219.91,1325.26 236,1380 C258.02,1454.91 209.63,2027.99 266,2082 C500.78,2306.97 505.3118,1490.2799 504.2918,1343.9299" fill="none" id="Admin-to-UC_KB" style="stroke:#F4A261;stroke-width:1;"/><polygon fill="#F4A261" points="504.25,1337.93,500.3128,1346.9577,504.2848,1342.9299,508.3126,1346.9019,504.25,1337.93" style="stroke:#F4A261;stroke-width:1;"/></g><!--link Admin to UC_KBCat--><g class="link" data-entity-1="ent0002" data-entity-2="ent0023" data-link-type="dependency" data-source-line="68" id="lnk35"><path d="M179.27,1137.9 C200.88,1116.78 223.29,1090.07 236,1061 C269.05,985.42 206.43,748.06 266,691 C303.4,655.18 355.2292,651.4929 404.4892,657.8429" fill="none" id="Admin-to-UC_KBCat" style="stroke:#F4A261;stroke-width:1;"/><polygon fill="#F4A261" points="410.44,658.61,402.0253,653.4922,405.481,657.9708,401.0025,661.4265,410.44,658.61" style="stroke:#F4A261;stroke-width:1;"/></g><!--link Manager to UC_Login--><g class="link" data-entity-1="ent0003" data-entity-2="ent0008" data-link-type="dependency" data-source-line="70" id="lnk36"><path d="M136.2,532.28 C157.67,599.23 202.71,723.77 266,816 C291.07,852.54 298.93,863.32 337,886 C370.73,906.1 407.2138,917.5602 440.8238,925.3202" fill="none" id="Manager-to-UC_Login" style="stroke:#2A9D8F;stroke-width:1;"/><polygon fill="#2A9D8F" points="446.67,926.67,438.8006,920.7478,441.7982,925.5452,437.0008,928.5428,446.67,926.67" style="stroke:#2A9D8F;stroke-width:1;"/></g><!--link Manager to UC_2FA--><g class="link" data-entity-1="ent0003" data-entity-2="ent0009" data-link-type="dependency" data-source-line="71" id="lnk37"><path d="M137.78,532.27 C165.27,606.34 229.48,748.03 337,813 C364.45,829.59 392.5428,837.7769 422.6928,842.8369" fill="none" id="Manager-to-UC_2FA" style="stroke:#2A9D8F;stroke-width:1;"/><polygon fill="#2A9D8F" points="428.61,843.83,420.3962,838.3956,423.679,843.0024,419.0721,846.2852,428.61,843.83" style="stroke:#2A9D8F;stroke-width:1;"/></g><!--link Manager to UC_Profile--><g class="link" data-entity-1="ent0003" data-entity-2="ent0010" data-link-type="dependency" data-source-line="72" id="lnk38"><path d="M150.7,532.39 C187.03,588.26 254.91,679.85 337,730 C359.83,743.95 381.2778,751.8711 407.1078,758.1111" fill="none" id="Manager-to-UC_Profile" style="stroke:#2A9D8F;stroke-width:1;"/><polygon fill="#2A9D8F" points="412.94,759.52,405.131,753.5184,408.0798,758.3459,403.2524,761.2947,412.94,759.52" style="stroke:#2A9D8F;stroke-width:1;"/></g><!--link Manager to UC_ViewNews--><g class="link" data-entity-1="ent0003" data-entity-2="ent0011" data-link-type="dependency" data-source-line="73" id="lnk39"><path d="M128.83,532.13 C143.4,622.54 183.19,824.61 266,974 C289.05,1015.58 296.02,1029.91 337,1054 C363.37,1069.5 389.6453,1077.4549 418.6953,1082.6949" fill="none" id="Manager-to-UC_ViewNews" style="stroke:#2A9D8F;stroke-width:1;"/><polygon fill="#2A9D8F" points="424.6,1083.76,416.453,1078.2259,419.6794,1082.8724,415.0329,1086.0988,424.6,1083.76" style="stroke:#2A9D8F;stroke-width:1;"/></g><!--link Manager to UC_Comments--><g class="link" data-entity-1="ent0003" data-entity-2="ent0012" data-link-type="dependency" data-source-line="74" id="lnk40"><path d="M132.76,532.27 C151.82,610.31 196.22,769.37 266,889 C290.29,930.64 295.95,945.73 337,971 C360.17,985.26 382.1326,993.3025 408.3426,999.5325" fill="none" id="Manager-to-UC_Comments" style="stroke:#2A9D8F;stroke-width:1;"/><polygon fill="#2A9D8F" points="414.18,1000.92,406.349,994.9472,409.3155,999.7637,404.4989,1002.7303,414.18,1000.92" style="stroke:#2A9D8F;stroke-width:1;"/></g><!--link Manager to UC_Likes--><g class="link" data-entity-1="ent0003" data-entity-2="ent0013" data-link-type="dependency" data-source-line="75" id="lnk41"><path d="M134.28,532.25 C155.42,613.75 199.87,786.04 236,932 C249.73,987.46 238.09,1007.15 266,1057 C287.8,1095.94 297.81,1106.65 337,1128 C365.65,1143.61 394.5896,1151.4759 425.0396,1156.4859" fill="none" id="Manager-to-UC_Likes" style="stroke:#2A9D8F;stroke-width:1;"/><polygon fill="#2A9D8F" points="430.96,1157.46,422.7288,1152.0519,426.0263,1156.6483,421.43,1159.9458,430.96,1157.46" style="stroke:#2A9D8F;stroke-width:1;"/></g><!--link Manager to UC_Calc--><g class="link" data-entity-1="ent0003" data-entity-2="ent0016" data-link-type="dependency" data-source-line="76" id="lnk42"><path d="M137.49,438 C157.81,384.49 199,299.17 266,258 C312.87,229.21 368.9737,223.8484 417.9937,225.5784" fill="none" id="Manager-to-UC_Calc" style="stroke:#2A9D8F;stroke-width:1;"/><polygon fill="#2A9D8F" points="423.99,225.79,415.1367,221.4751,418.9931,225.6137,414.8545,229.4701,423.99,225.79" style="stroke:#2A9D8F;stroke-width:1;"/></g><!--link Manager to UC_Draft--><g class="link" data-entity-1="ent0003" data-entity-2="ent0017" data-link-type="dependency" data-source-line="77" id="lnk43"><path d="M141.64,437.66 C164.01,390.69 205.49,321.45 266,291 C327.14,260.24 401.4541,283.5933 451.3441,306.4233" fill="none" id="Manager-to-UC_Draft" style="stroke:#2A9D8F;stroke-width:1;"/><polygon fill="#2A9D8F" points="456.8,308.92,450.2806,301.5378,452.2534,306.8395,446.9517,308.8123,456.8,308.92" style="stroke:#2A9D8F;stroke-width:1;"/></g><!--link Manager to UC_Report--><g class="link" data-entity-1="ent0003" data-entity-2="ent0018" data-link-type="dependency" data-source-line="78" id="lnk44"><path d="M121.76,437.76 C124.19,347.16 144.02,150.27 266,63 C314.91,28.01 379.275,33.3325 430.755,45.6625" fill="none" id="Manager-to-UC_Report" style="stroke:#2A9D8F;stroke-width:1;"/><polygon fill="#2A9D8F" points="436.59,47.06,428.7692,41.0737,431.7275,45.8954,426.9059,48.8537,436.59,47.06" style="stroke:#2A9D8F;stroke-width:1;"/></g><!--link Manager to UC_History--><g class="link" data-entity-1="ent0003" data-entity-2="ent0019" data-link-type="dependency" data-source-line="79" id="lnk45"><path d="M123.2,437.8 C128.23,352.26 152.52,173.14 266,94 C288.97,77.99 305.67,78.51 329,94 C336.63,99.07 330.05,107.04 337,113 C355.49,128.87 373.3317,137.3472 396.9717,143.6372" fill="none" id="Manager-to-UC_History" style="stroke:#2A9D8F;stroke-width:1;"/><polygon fill="#2A9D8F" points="402.77,145.18,395.1011,139.0003,397.9381,143.8944,393.0441,146.7314,402.77,145.18" style="stroke:#2A9D8F;stroke-width:1;"/></g><!--link Manager to UC_Users--><g class="link" data-entity-1="ent0003" data-entity-2="ent0014" data-link-type="dependency" data-source-line="80" id="lnk46"><path d="M148.08,437.84 C172.72,398.64 213.68,345.6 266,322 C291.53,310.49 307.85,303.66 329,322 C347.99,338.48 320.28,359.23 337,378 C352.15,395.02 367.2978,404.0374 389.1578,410.7974" fill="none" id="Manager-to-UC_Users" style="stroke:#2A9D8F;stroke-width:1;"/><polygon fill="#2A9D8F" points="394.89,412.57,387.4735,406.0896,390.1132,411.0928,385.11,413.7325,394.89,412.57" style="stroke:#2A9D8F;stroke-width:1;"/></g><!--link Manager to UC_Refs--><g class="link" data-entity-1="ent0003" data-entity-2="ent0015" data-link-type="dependency" data-source-line="81" id="lnk47"><path d="M155.87,437.86 C199.23,383.02 275.18,305.99 329,356 C346.79,372.54 321.27,446.5 337,465 C354.76,485.9 375.4561,495.7264 402.1961,501.2964" fill="none" id="Manager-to-UC_Refs" style="stroke:#2A9D8F;stroke-width:1;"/><polygon fill="#2A9D8F" points="408.07,502.52,400.0748,496.7687,403.1751,501.5004,398.4434,504.6006,408.07,502.52" style="stroke:#2A9D8F;stroke-width:1;"/></g><!--link Manager to UC_KB--><g class="link" data-entity-1="ent0003" data-entity-2="ent0022" data-link-type="dependency" data-source-line="82" id="lnk48"><path d="M135.73,532.27 C158.94,613.44 206.27,784.81 236,932 C253.8,1020.11 239.14,1046.23 266,1132 C287.32,1200.1 281.24,1231.47 337,1276 C358.78,1293.4 381.0606,1302.1747 408.0206,1307.8947" fill="none" id="Manager-to-UC_KB" style="stroke:#2A9D8F;stroke-width:1;"/><polygon fill="#2A9D8F" points="413.89,1309.14,405.9162,1303.3592,408.9989,1308.1023,404.2558,1311.185,413.89,1309.14" style="stroke:#2A9D8F;stroke-width:1;"/></g><!--link Manager to UC_KBCat--><g class="link" data-entity-1="ent0003" data-entity-2="ent0023" data-link-type="dependency" data-source-line="83" id="lnk49"><path d="M161.53,487.49 C209.36,492.78 288.5,509.33 329,561 C348.86,586.34 316.31,608.34 337,633 C349.23,647.59 360.0206,655.6545 377.6806,663.0045" fill="none" id="Manager-to-UC_KBCat" style="stroke:#2A9D8F;stroke-width:1;"/><polygon fill="#2A9D8F" points="383.22,665.31,376.4479,658.1589,378.6038,663.3888,373.3739,665.5447,383.22,665.31" style="stroke:#2A9D8F;stroke-width:1;"/></g><!--link Finance to UC_Login--><g class="link" data-entity-1="ent0004" data-entity-2="ent0008" data-link-type="dependency" data-source-line="85" id="lnk50"><path d="M204.66,1034.37 C246.44,1047.13 295.28,1051.84 329,1023 C346.44,1008.09 321.2,988.64 337,972 C361.28,946.45 393.0994,937.5722 426.5894,934.8722" fill="none" id="Finance-to-UC_Login" style="stroke:#457B9D;stroke-width:1;"/><polygon fill="#457B9D" points="432.57,934.39,423.2777,931.1262,427.5862,934.7918,423.9205,939.1003,432.57,934.39" style="stroke:#457B9D;stroke-width:1;"/></g><!--link Finance to UC_2FA--><g class="link" data-entity-1="ent0004" data-entity-2="ent0009" data-link-type="dependency" data-source-line="86" id="lnk51"><path d="M204.55,957.88 C244.17,939.79 292.58,918.67 337,902 C375.38,887.6 413.9592,875.6073 447.3092,865.8973" fill="none" id="Finance-to-UC_2FA" style="stroke:#457B9D;stroke-width:1;"/><polygon fill="#457B9D" points="453.07,864.22,443.3106,862.8954,448.2693,865.6177,445.547,870.5764,453.07,864.22" style="stroke:#457B9D;stroke-width:1;"/></g><!--link Finance to UC_Profile--><g class="link" data-entity-1="ent0004" data-entity-2="ent0010" data-link-type="dependency" data-source-line="87" id="lnk52"><path d="M145.98,949.88 C170.25,907.26 211.89,846.39 266,814 C305.51,790.35 348.9284,779.9381 392.4484,774.9881" fill="none" id="Finance-to-UC_Profile" style="stroke:#457B9D;stroke-width:1;"/><polygon fill="#457B9D" points="398.41,774.31,389.0156,771.3527,393.442,774.8751,389.9197,779.3015,398.41,774.31" style="stroke:#457B9D;stroke-width:1;"/></g><!--link Finance to UC_ViewNews--><g class="link" data-entity-1="ent0004" data-entity-2="ent0011" data-link-type="dependency" data-source-line="88" id="lnk53"><path d="M176.61,1044.06 C198.06,1065.25 221.08,1091.83 236,1120 C263.76,1172.4 219.6,1213.09 266,1250 C287.91,1267.43 308.56,1269.14 329,1250 C348.83,1231.43 319.31,1148.62 337,1128 C357.21,1104.45 382.7959,1094.7774 413.0459,1090.6174" fill="none" id="Finance-to-UC_ViewNews" style="stroke:#457B9D;stroke-width:1;"/><polygon fill="#457B9D" points="418.99,1089.8,409.529,1087.0634,414.0366,1090.4812,410.6189,1094.9889,418.99,1089.8" style="stroke:#457B9D;stroke-width:1;"/></g><!--link Finance to UC_Comments--><g class="link" data-entity-1="ent0004" data-entity-2="ent0012" data-link-type="dependency" data-source-line="89" id="lnk54"><path d="M175.71,1044.1 C197.14,1065.4 220.39,1092.04 236,1120 C260.28,1163.5 226.34,1197.86 266,1228 C288.29,1244.95 308.75,1247.34 329,1228 C343,1214.64 324.71,1068.95 337,1054 C353.02,1034.51 370.8386,1024.873 395.3186,1018.763" fill="none" id="Finance-to-UC_Comments" style="stroke:#457B9D;stroke-width:1;"/><polygon fill="#457B9D" points="401.14,1017.31,391.4392,1015.6085,396.2888,1018.5208,393.3765,1023.3704,401.14,1017.31" style="stroke:#457B9D;stroke-width:1;"/></g><!--link Finance to UC_Likes--><g class="link" data-entity-1="ent0004" data-entity-2="ent0013" data-link-type="dependency" data-source-line="90" id="lnk55"><path d="M177.35,1044.12 C198.79,1065.23 221.59,1091.72 236,1120 C267.26,1181.36 212.8,1228.28 266,1272 C287.63,1289.78 308.15,1290.69 329,1272 C341.15,1261.11 326.04,1211.09 337,1199 C359.39,1174.32 388.3789,1165.1586 420.5389,1161.9886" fill="none" id="Finance-to-UC_Likes" style="stroke:#457B9D;stroke-width:1;"/><polygon fill="#457B9D" points="426.51,1161.4,417.161,1158.3021,421.5341,1161.8905,417.9458,1166.2636,426.51,1161.4" style="stroke:#457B9D;stroke-width:1;"/></g><!--link Finance to UC_Users--><g class="link" data-entity-1="ent0004" data-entity-2="ent0014" data-link-type="dependency" data-source-line="91" id="lnk56"><path d="M136.01,949.68 C159.61,868.41 207.54,696.77 236,549 C245.62,499.04 227.74,355.54 266,322 C287.06,303.55 307.85,303.66 329,322 C347.99,338.48 320.28,359.23 337,378 C352.15,395.02 367.2978,404.0374 389.1578,410.7974" fill="none" id="Finance-to-UC_Users" style="stroke:#457B9D;stroke-width:1;"/><polygon fill="#457B9D" points="394.89,412.57,387.4735,406.0896,390.1132,411.0928,385.11,413.7325,394.89,412.57" style="stroke:#457B9D;stroke-width:1;"/></g><!--link Finance to UC_Refs--><g class="link" data-entity-1="ent0004" data-entity-2="ent0015" data-link-type="dependency" data-source-line="92" id="lnk57"><path d="M133.9,949.85 C167.47,817 260.86,448.97 266,445 C288.16,427.88 305.81,429.31 329,445 C336.93,450.37 329.76,458.74 337,465 C357.64,482.84 378.9964,491.768 405.4564,497.508" fill="none" id="Finance-to-UC_Refs" style="stroke:#457B9D;stroke-width:1;"/><polygon fill="#457B9D" points="411.32,498.78,403.3726,492.9629,406.4337,497.72,401.6766,500.7811,411.32,498.78" style="stroke:#457B9D;stroke-width:1;"/></g><!--link Finance to UC_Fin--><g class="link" data-entity-1="ent0004" data-entity-2="ent0020" data-link-type="dependency" data-source-line="93" id="lnk58"><path d="M129.27,949.93 C147.11,841.26 196.7,578.25 266,527 C288.51,510.35 305.36,512 329,527 C336.05,531.48 330.6,538.64 337,544 C354.84,558.94 371.4407,567.2439 393.9207,573.9539" fill="none" id="Finance-to-UC_Fin" style="stroke:#457B9D;stroke-width:1;"/><polygon fill="#457B9D" points="399.67,575.67,392.1901,569.2629,394.8789,574.2399,389.9019,576.9287,399.67,575.67" style="stroke:#457B9D;stroke-width:1;"/></g><!--link Finance to UC_KB--><g class="link" data-entity-1="ent0004" data-entity-2="ent0022" data-link-type="dependency" data-source-line="94" id="lnk59"><path d="M177.98,1044.24 C199.39,1065.27 222,1091.68 236,1120 C270.77,1190.35 208.37,1240.74 266,1294 C310.03,1334.7 374.2209,1337.1691 426.9809,1330.9791" fill="none" id="Finance-to-UC_KB" style="stroke:#457B9D;stroke-width:1;"/><polygon fill="#457B9D" points="432.94,1330.28,423.5352,1327.356,427.9741,1330.8626,424.4674,1335.3015,432.94,1330.28" style="stroke:#457B9D;stroke-width:1;"/></g><!--link Finance to UC_KBCat--><g class="link" data-entity-1="ent0004" data-entity-2="ent0023" data-link-type="dependency" data-source-line="95" id="lnk60"><path d="M125.64,949.73 C134.48,871.67 164.56,717.73 266,650 C290.01,633.97 351.8538,643.3001 408.9338,656.4801" fill="none" id="Finance-to-UC_KBCat" style="stroke:#457B9D;stroke-width:1;"/><polygon fill="#457B9D" points="414.78,657.83,406.9107,651.9077,409.9082,656.7051,405.1108,659.7026,414.78,657.83" style="stroke:#457B9D;stroke-width:1;"/></g><!--link Redactor to UC_Login--><g class="link" data-entity-1="ent0005" data-entity-2="ent0008" data-link-type="dependency" data-source-line="97" id="lnk61"><path d="M162.68,1399.14 C212.28,1340.06 293.85,1231.94 329,1123 C334.16,1107.01 326.07,984.76 337,972 C360.42,944.67 393.2423,935.7839 427.5523,933.5839" fill="none" id="Redactor-to-UC_Login" style="stroke:#E76F51;stroke-width:1;"/><polygon fill="#E76F51" points="433.54,933.2,424.3025,929.7841,428.5502,933.5199,424.8144,937.7677,433.54,933.2" style="stroke:#E76F51;stroke-width:1;"/></g><!--link Redactor to UC_2FA--><g class="link" data-entity-1="ent0005" data-entity-2="ent0009" data-link-type="dependency" data-source-line="98" id="lnk62"><path d="M155.48,1397.69 C181.13,1359.3 215.5,1302.91 236,1249 C259.86,1186.27 234.94,1160.5 266,1101 C284.76,1065.05 312.79,1072.18 329,1035 C340.83,1007.86 318.74,925.31 337,902 C358.44,874.63 388.2182,862.4743 421.0982,856.1443" fill="none" id="Redactor-to-UC_2FA" style="stroke:#E76F51;stroke-width:1;"/><polygon fill="#E76F51" points="426.99,855.01,417.3961,852.7835,422.0802,855.9552,418.9085,860.6393,426.99,855.01" style="stroke:#E76F51;stroke-width:1;"/></g><!--link Redactor to UC_Profile--><g class="link" data-entity-1="ent0005" data-entity-2="ent0010" data-link-type="dependency" data-source-line="99" id="lnk63"><path d="M157.47,1397.9 C184.05,1359.85 218.7,1303.81 236,1249 C259.7,1173.93 226.68,964.21 266,896 C283.06,866.41 310.16,880.49 329,852 C338.52,837.61 325.04,826.44 337,814 C354.31,796.01 372.2825,786.7977 396.4725,780.5177" fill="none" id="Redactor-to-UC_Profile" style="stroke:#E76F51;stroke-width:1;"/><polygon fill="#E76F51" points="402.28,779.01,392.5636,777.3999,397.4404,780.2664,394.5739,785.1432,402.28,779.01" style="stroke:#E76F51;stroke-width:1;"/></g><!--link Redactor to UC_ViewNews--><g class="link" data-entity-1="ent0005" data-entity-2="ent0011" data-link-type="dependency" data-source-line="100" id="lnk64"><path d="M162.76,1458.03 C187.65,1468.07 218.04,1484.46 236,1509 C274.86,1562.12 214.97,1612.45 266,1654 C287.71,1671.68 309.05,1673.65 329,1654 C349.82,1633.5 318.53,1150.65 337,1128 C356.8,1103.72 382.6911,1093.9515 413.2911,1089.9315" fill="none" id="Redactor-to-UC_ViewNews" style="stroke:#E76F51;stroke-width:1;"/><polygon fill="#E76F51" points="419.24,1089.15,409.7957,1086.3564,414.2826,1089.8013,410.8377,1094.2882,419.24,1089.15" style="stroke:#E76F51;stroke-width:1;"/></g><!--link Redactor to UC_Comments--><g class="link" data-entity-1="ent0005" data-entity-2="ent0012" data-link-type="dependency" data-source-line="101" id="lnk65"><path d="M162.76,1425.62 C212.25,1399.6 293.48,1348.25 329,1277 C340.06,1254.81 321.35,1073.24 337,1054 C352.92,1034.43 370.7091,1024.7752 395.1891,1018.6552" fill="none" id="Redactor-to-UC_Comments" style="stroke:#E76F51;stroke-width:1;"/><polygon fill="#E76F51" points="401.01,1017.2,391.3086,1015.5023,396.1593,1018.4127,393.2489,1023.2634,401.01,1017.2" style="stroke:#E76F51;stroke-width:1;"/></g><!--link Redactor to UC_Likes--><g class="link" data-entity-1="ent0005" data-entity-2="ent0013" data-link-type="dependency" data-source-line="102" id="lnk66"><path d="M162.67,1456.88 C188.2,1466.58 219.33,1483.02 236,1509 C280.07,1577.68 205.99,1819.71 266,1875 C286.59,1893.98 309.08,1894.68 329,1875 C342.36,1861.8 325.08,1213.51 337,1199 C358.63,1172.69 388.5506,1163.4468 421.5306,1160.7068" fill="none" id="Redactor-to-UC_Likes" style="stroke:#E76F51;stroke-width:1;"/><polygon fill="#E76F51" points="427.51,1160.21,418.2097,1156.9689,422.5272,1160.624,418.8721,1164.9414,427.51,1160.21" style="stroke:#E76F51;stroke-width:1;"/></g><!--link Redactor to UC_NewsEdit--><g class="link" data-entity-1="ent0005" data-entity-2="ent0021" data-link-type="dependency" data-source-line="103" id="lnk67"><path d="M162.72,1456.86 C188.26,1466.55 219.39,1482.98 236,1509 C282.65,1582.09 202.38,1839.1 266,1898 C286.55,1917.03 309.07,1917.67 329,1898 C341.28,1885.88 326.19,1290.45 337,1277 C355,1254.61 377.2557,1244.6274 405.3557,1239.5474" fill="none" id="Redactor-to-UC_NewsEdit" style="stroke:#E76F51;stroke-width:1;"/><polygon fill="#E76F51" points="411.26,1238.48,401.692,1236.1449,406.3398,1239.3695,403.1152,1244.0173,411.26,1238.48" style="stroke:#E76F51;stroke-width:1;"/></g><!--link Redactor to UC_KB--><g class="link" data-entity-1="ent0005" data-entity-2="ent0022" data-link-type="dependency" data-source-line="104" id="lnk68"><path d="M162.68,1456.6 C188.37,1466.21 219.7,1482.66 236,1509 C271.94,1567.09 216.54,2075.9 266,2123 C286.28,2142.31 307.2,2140.58 329,2123 C456.78,2019.96 495.6426,1461.5099 502.4826,1343.5899" fill="none" id="Redactor-to-UC_KB" style="stroke:#E76F51;stroke-width:1;"/><polygon fill="#E76F51" points="502.83,1337.6,498.3155,1346.3533,502.5405,1342.5916,506.3021,1346.8165,502.83,1337.6" style="stroke:#E76F51;stroke-width:1;"/></g><!--link Redactor to UC_KBCat--><g class="link" data-entity-1="ent0005" data-entity-2="ent0023" data-link-type="dependency" data-source-line="105" id="lnk69"><path d="M157.63,1397.94 C184.29,1359.93 218.98,1303.9 236,1249 C288.94,1078.3 211.79,1018.3 266,848 C284.56,789.68 288.44,767.26 337,730 C353.27,717.51 367.0201,710.2328 386.7501,703.4028" fill="none" id="Redactor-to-UC_KBCat" style="stroke:#E76F51;stroke-width:1;"/><polygon fill="#E76F51" points="392.42,701.44,382.6067,700.6042,387.6951,703.0756,385.2237,708.1641,392.42,701.44" style="stroke:#E76F51;stroke-width:1;"/></g><!--link User to UC_Login--><g class="link" data-entity-1="ent0006" data-entity-2="ent0008" data-link-type="dependency" data-source-line="107" id="lnk70"><path d="M218.79,1526.9 C225.15,1521.46 231,1515.5 236,1509 C267.7,1467.83 248.07,1444.77 266,1396 C288.44,1334.99 313.78,1327.2 329,1264 C332.8,1248.23 326.6,984.46 337,972 C360.26,944.15 393.5103,935.2914 428.1103,933.2614" fill="none" id="User-to-UC_Login" style="stroke:#E9C46A;stroke-width:1;"/><polygon fill="#E9C46A" points="434.1,932.91,424.8812,929.444,429.1086,933.2028,425.3497,937.4303,434.1,932.91" style="stroke:#E9C46A;stroke-width:1;"/></g><!--link User to UC_2FA--><g class="link" data-entity-1="ent0006" data-entity-2="ent0009" data-link-type="dependency" data-source-line="108" id="lnk71"><path d="M220.39,1526.81 C226.26,1521.42 231.57,1515.49 236,1509 C287.91,1432.95 245.81,1393.84 266,1304 C286.99,1210.59 312.92,1192.38 329,1098 C332.66,1076.52 323.73,919.29 337,902 C358.18,874.43 387.9265,862.2457 420.8565,855.9557" fill="none" id="User-to-UC_2FA" style="stroke:#E9C46A;stroke-width:1;"/><polygon fill="#E9C46A" points="426.75,854.83,417.1593,852.5896,421.8388,855.7681,418.6603,860.4475,426.75,854.83" style="stroke:#E9C46A;stroke-width:1;"/></g><!--link User to UC_Profile--><g class="link" data-entity-1="ent0006" data-entity-2="ent0010" data-link-type="dependency" data-source-line="109" id="lnk72"><path d="M221.06,1526.84 C226.73,1521.45 231.81,1515.52 236,1509 C276.28,1446.31 254.52,1248.63 266,1175 C285.79,1048.11 308.49,1019.78 329,893 C331.82,875.58 325.46,827.35 337,814 C353.32,795.12 370.9533,785.5905 395.1333,779.3005" fill="none" id="User-to-UC_Profile" style="stroke:#E9C46A;stroke-width:1;"/><polygon fill="#E9C46A" points="400.94,777.79,391.2229,776.1846,396.101,779.0488,393.2369,783.9269,400.94,777.79" style="stroke:#E9C46A;stroke-width:1;"/></g><!--link User to UC_ViewNews--><g class="link" data-entity-1="ent0006" data-entity-2="ent0011" data-link-type="dependency" data-source-line="110" id="lnk73"><path d="M163.99,1621.42 C209.47,1667.27 281.83,1723.49 329,1677 C350.73,1655.59 317.73,1151.65 337,1128 C356.79,1103.71 382.6809,1093.9396 413.2809,1089.9296" fill="none" id="User-to-UC_ViewNews" style="stroke:#E9C46A;stroke-width:1;"/><polygon fill="#E9C46A" points="419.23,1089.15,409.7866,1086.3533,414.2724,1089.7997,410.826,1094.2855,419.23,1089.15" style="stroke:#E9C46A;stroke-width:1;"/></g><!--link User to UC_Comments--><g class="link" data-entity-1="ent0006" data-entity-2="ent0012" data-link-type="dependency" data-source-line="111" id="lnk74"><path d="M214.12,1526.87 C221.88,1521.32 229.31,1515.36 236,1509 C291.53,1456.29 306.52,1437.19 329,1364 C334.06,1347.53 326.2,1067.42 337,1054 C352.82,1034.35 370.5684,1024.6624 395.0584,1018.5524" fill="none" id="User-to-UC_Comments" style="stroke:#E9C46A;stroke-width:1;"/><polygon fill="#E9C46A" points="400.88,1017.1,391.1794,1015.3976,396.0287,1018.3103,393.1159,1023.1597,400.88,1017.1" style="stroke:#E9C46A;stroke-width:1;"/></g><!--link User to UC_Likes--><g class="link" data-entity-1="ent0006" data-entity-2="ent0013" data-link-type="dependency" data-source-line="112" id="lnk75"><path d="M132.36,1621.34 C158.58,1732.44 232.4,1993.5 329,1898 C342.81,1884.35 324.67,1214.01 337,1199 C358.63,1172.68 388.5406,1163.4466 421.5306,1160.7066" fill="none" id="User-to-UC_Likes" style="stroke:#E9C46A;stroke-width:1;"/><polygon fill="#E9C46A" points="427.51,1160.21,418.2098,1156.9687,422.5272,1160.6239,418.872,1164.9412,427.51,1160.21" style="stroke:#E9C46A;stroke-width:1;"/></g><!--link User to UC_KB--><g class="link" data-entity-1="ent0006" data-entity-2="ent0022" data-link-type="dependency" data-source-line="113" id="lnk76"><path d="M122.61,1621.14 C126.26,1781.57 151.79,2288.71 329,2145 C459.96,2038.8 496.3985,1464.0019 502.6485,1343.7819" fill="none" id="User-to-UC_KB" style="stroke:#E9C46A;stroke-width:1;"/><polygon fill="#E9C46A" points="502.96,1337.79,498.4981,1346.5702,502.7004,1342.7833,506.4873,1346.9855,502.96,1337.79" style="stroke:#E9C46A;stroke-width:1;"/></g><!--link UC_Login to UC_2FA--><g class="link" data-entity-1="ent0008" data-entity-2="ent0009" data-link-type="dependency" data-source-line="115" id="lnk77"><path d="M505,919.81 C505,905.06 505,889.83 505,874.66" fill="none" id="UC_Login-to-UC_2FA" style="stroke:#181818;stroke-width:1;stroke-dasharray:7,7;"/><polygon fill="#181818" points="505,868.66,501,877.66,505,873.66,509,877.66,505,868.66" style="stroke:#181818;stroke-width:1;"/><text fill="#000000" font-family="sans-serif" font-size="13" lengthAdjust="spacing" textLength="63.0068" x="462" y="898.8169">&#171;include&#187;</text></g><!--link UC_Calc to UC_Draft--><g class="link" data-entity-1="ent0016" data-entity-2="ent0017" data-link-type="dependency" data-source-line="116" id="lnk78"><path d="M505,255.74 C505,270.62 505,284.81 505,300.95" fill="none" id="UC_Calc-to-UC_Draft" style="stroke:#181818;stroke-width:1;stroke-dasharray:7,7;"/><polygon fill="#181818" points="505,306.95,509,297.95,505,301.95,501,297.95,505,306.95" style="stroke:#181818;stroke-width:1;"/><text fill="#000000" font-family="sans-serif" font-size="13" lengthAdjust="spacing" textLength="61.1851" x="463" y="285.8169">&#171;extend&#187;</text></g><!--link UC_Calc to UC_Report--><g class="link" data-entity-1="ent0016" data-entity-2="ent0018" data-link-type="dependency" data-source-line="117" id="lnk79"><path d="M416.53,230.53 C388.6,225.3 359.25,215.38 337,197 C299.98,166.43 268.3,131.57 300,95.5 C324.17,68.01 355.6276,58.5219 391.9476,56.6919" fill="none" id="UC_Calc-to-UC_Report" style="stroke:#181818;stroke-width:1;stroke-dasharray:7,7;"/><polygon fill="#181818" points="397.94,56.39,388.7501,52.848,392.9463,56.6416,389.1527,60.8378,397.94,56.39" style="stroke:#181818;stroke-width:1;"/><text fill="#000000" font-family="sans-serif" font-size="13" lengthAdjust="spacing" textLength="61.1851" x="267" y="108.5669">&#171;extend&#187;</text></g><?plantuml-src ZLRDRjj64BxpAHREEOMjM78S10RqOo90aw9mqLwA8234bK9O8WsIXXCK1Up4RWyku2378iWFqWTWdIXMR9b-XUKRPMR8tP0Inubq4BdVp3Spt-oiTYG7iOW34Nh3nx5mlL3sOo_mhMZRytUSq1aBfny7uI_nqv4KpfwCWh4iWJjEVziPoXn6NySVZie6qMF73VOyVoW6pYYIrZpntRjjT-pv6nlY3qk83j0Dms3NTxl1A0Z53NkrtMYj81A4hWoBrVNkQdjv6LRjm8-BjHKRlzQVYm4UE3wa678X6ktrtcrxFiHofzbhjgeXRFhKXR0zt_7xaWknsbphhFVcGwpqRZMRQzyROakwzCJ5s5nhsSr5fJgDHkExo_WrucNQ1D5RxNd-zksr5ji9YsZ5adgXFggPcgfBDSqEicVPlagoPohDzfU44mdQ0C9i1EFrIat0OmA-dzIai2rwAKfTDVR_KOH4NMO7AbMdsR7wBC1v2k4cwhmKiEYMAFNDaBobW4d5Nailobqe5NUQsqBuCmoCAK0I5FuA5YwoVpG0XXDy9rfKMsZHBSjC3t2-WuBH55rE1DQL7LA86Ipy1UyfXY0GYYLHmHh09MhURYJxJeH4BxCZiFqer6d5C7kUPz1zT3yOUdx5vGs4ISdj4oY1BPYgYMZORUq2ZnM7icGejfO0tTGLiHt2oqLseXb-3eE11yV4OjW3A2B57IA008dI8kNFslStJ-xz9FUYYlE_O3k3BsGBrWdrOYhKUOKbEr4ppT8DncFfnrMMro0jrdkk4ZRyVMzRLhtUKuq965yOjPY-d-0KQ2RiUvNf9GcfEK0BJPncVzFYER9f_oqvc7E7BKTnQMeA4Xor0t37_PIOwfrHl-Bw3ZjEmKgkwBHVw33DHS7Mp77rGcSGVvCCDWRCYFgGYug_jMHRSYS8u-ltHRw9KztZhombRUvv4Gpdq-lKFPm_BR8ZXinU693dwdzGcJJ1QSGHPROBxjHDruld1YO1WXGBXouBU4veey1vSPRd1Do6uiVEDxSRBPnHTHVmD4DTY3GxPYYxJem7T7xqtloz-9zzU7FZwvbGZ-7mroDwgEjHCxRri9b79YEQkdeidwDwZ6Qa7hBP4atFwc7e1mUWgfR-Ym8ulrfKLELGr9N3jB8SRhJb38owR6waB-kEnmK7vlFFeSL0Sx2UKmxFUykJ3tWGsiH3r2Xz3G0ulw1L6iMXs2WEqutYSDCepi0qYisD6iMXkLmSId9ne7rDoI0b3v6KveO4U7uHhMZ9mYWc2serMGCZ9sjXzEGJ945Ps9m5h0M8Smr6wj153p6wGbUKgOLGbLf0Ar8B6ZLgKQD4VJAaGYq4zLawNV63pa_SWPkhv_T7koxUdej3ei3fI20B-IIMlhjWa9yA5Oil?></g></svg>