<?plantuml 1.2026.2?><svg xmlns="http://www.w3.org/2000/svg" xmlns:xlink="http://www.w3.org/1999/xlink" contentStyleType="text/css" data-diagram-type="DESCRIPTION" height="812px" preserveAspectRatio="none" style="width:630px;height:812px;background:#FFFFFF;" version="1.1" viewBox="0 0 630 812" width="630px" zoomAndPan="magnify"><defs/><g><!--cluster ?????????????????? ??????? ???????--><g class="cluster" data-qualified-name=".................. ....... ......." data-source-line="32" id="ent0006"><rect fill="none" height="799" rx="2.5" ry="2.5" style="stroke:#181818;stroke-width:1;" width="342" x="282" y="7"/><text fill="#000000" font-family="sans-serif" font-size="14" font-weight="bold" lengthAdjust="spacing" textLength="326.5869" x="289.7065" y="21.9951">&#1057;&#1087;&#1077;&#1094;&#1080;&#1072;&#1083;&#1080;&#1079;&#1080;&#1088;&#1086;&#1074;&#1072;&#1085;&#1085;&#1099;&#1077; &#1092;&#1091;&#1085;&#1082;&#1094;&#1080;&#1080; &#1089;&#1080;&#1089;&#1090;&#1077;&#1084;&#1099;</text></g><!--entity UC_Users--><g class="entity" data-qualified-name=".................. ....... ........UC_Users" data-source-line="33" id="ent0007"><ellipse cx="452.9171" cy="235.8834" fill="#F1F1F1" rx="117.4171" ry="25.8834" style="stroke:#181818;stroke-width:0.5;"/><text fill="#000000" font-family="sans-serif" font-size="14" lengthAdjust="spacing" textLength="213.835" x="345.9996" y="240.5319">&#1059;&#1087;&#1088;&#1072;&#1074;&#1083;&#1077;&#1085;&#1080;&#1077; &#1087;&#1086;&#1083;&#1100;&#1079;&#1086;&#1074;&#1072;&#1090;&#1077;&#1083;&#1103;&#1084;&#1080;</text></g><!--entity UC_Refs--><g class="entity" data-qualified-name=".................. ....... ........UC_Refs" data-source-line="34" id="ent0008"><ellipse cx="453.1004" cy="152.9201" fill="#F1F1F1" rx="97.6004" ry="21.9201" style="stroke:#181818;stroke-width:0.5;"/><text fill="#000000" font-family="sans-serif" font-size="14" lengthAdjust="spacing" textLength="170.7549" x="367.7229" y="157.5685">&#1042;&#1077;&#1076;&#1077;&#1085;&#1080;&#1077; &#1089;&#1087;&#1088;&#1072;&#1074;&#1086;&#1095;&#1085;&#1080;&#1082;&#1086;&#1074;</text></g><!--entity UC_Calc--><g class="entity" data-qualified-name=".................. ....... ........UC_Calc" data-source-line="35" id="ent0009"><ellipse cx="453.1406" cy="664.0281" fill="#F1F1F1" rx="90.6406" ry="20.5281" style="stroke:#181818;stroke-width:0.5;"/><text fill="#000000" font-family="sans-serif" font-size="14" lengthAdjust="spacing" textLength="155.1895" x="375.5458" y="668.6765">&#1042;&#1099;&#1087;&#1086;&#1083;&#1085;&#1077;&#1085;&#1080;&#1077; &#1088;&#1072;&#1089;&#1095;&#1077;&#1090;&#1072;</text></g><!--entity UC_Draft--><g class="entity" data-qualified-name=".................. ....... ........UC_Draft" data-source-line="36" id="ent0010"><ellipse cx="453.0447" cy="763.0089" fill="#F1F1F1" rx="123.0447" ry="27.0089" style="stroke:#181818;stroke-width:0.5;"/><text fill="#000000" font-family="sans-serif" font-size="14" lengthAdjust="spacing" textLength="225.8389" x="340.1252" y="767.6574">&#1057;&#1086;&#1093;&#1088;&#1072;&#1085;&#1077;&#1085;&#1080;&#1077; &#1095;&#1077;&#1088;&#1085;&#1086;&#1074;&#1080;&#1082;&#1072; &#1086;&#1090;&#1095;&#1077;&#1090;&#1072;</text></g><!--entity UC_Report--><g class="entity" data-qualified-name=".................. ....... ........UC_Report" data-source-line="37" id="ent0011"><ellipse cx="452.9482" cy="498.1896" fill="#F1F1F1" rx="121.4482" ry="26.6896" style="stroke:#181818;stroke-width:0.5;"/><text fill="#000000" font-family="sans-serif" font-size="14" lengthAdjust="spacing" textLength="222.4414" x="341.7275" y="502.8381">&#1057;&#1086;&#1093;&#1088;&#1072;&#1085;&#1077;&#1085;&#1080;&#1077; &#1080;&#1090;&#1086;&#1075;&#1086;&#1074;&#1086;&#1075;&#1086; &#1086;&#1090;&#1095;&#1077;&#1090;&#1072;</text></g><!--entity UC_History--><g class="entity" data-qualified-name=".................. ....... ........UC_History" data-source-line="38" id="ent0012"><ellipse cx="452.9459" cy="584.0892" fill="#F1F1F1" rx="110.9459" ry="24.5892" style="stroke:#181818;stroke-width:0.5;"/><text fill="#000000" font-family="sans-serif" font-size="14" lengthAdjust="spacing" textLength="199.9238" x="352.984" y="588.7376">&#1055;&#1088;&#1086;&#1089;&#1084;&#1086;&#1090;&#1088; &#1080;&#1089;&#1090;&#1086;&#1088;&#1080;&#1080; &#1086;&#1090;&#1095;&#1077;&#1090;&#1086;&#1074;</text></g><!--entity UC_Fin--><g class="entity" data-qualified-name=".................. ....... ........UC_Fin" data-source-line="39" id="ent0013"><ellipse cx="453.0509" cy="69.2102" fill="#F1F1F1" rx="121.5509" ry="26.7102" style="stroke:#181818;stroke-width:0.5;"/><text fill="#000000" font-family="sans-serif" font-size="14" lengthAdjust="spacing" textLength="222.6602" x="341.7208" y="73.8586">&#1042;&#1077;&#1076;&#1077;&#1085;&#1080;&#1077; &#1092;&#1080;&#1085;&#1072;&#1085;&#1089;&#1086;&#1074;&#1099;&#1093; &#1086;&#1090;&#1095;&#1077;&#1090;&#1086;&#1074;</text></g><!--entity UC_NewsEdit--><g class="entity" data-qualified-name=".................. ....... ........UC_NewsEdit" data-source-line="40" id="ent0014"><ellipse cx="453.2265" cy="415.1453" fill="#F1F1F1" rx="93.7265" ry="21.1453" style="stroke:#181818;stroke-width:0.5;"/><text fill="#000000" font-family="sans-serif" font-size="14" lengthAdjust="spacing" textLength="162.1279" x="372.1625" y="419.7937">&#1055;&#1091;&#1073;&#1083;&#1080;&#1082;&#1072;&#1094;&#1080;&#1103; &#1085;&#1086;&#1074;&#1086;&#1089;&#1090;&#1077;&#1081;</text></g><!--entity UC_KBCat--><g class="entity" data-qualified-name=".................. ....... ........UC_KBCat" data-source-line="41" id="ent0015"><ellipse cx="452.9218" cy="328.1844" fill="#F1F1F1" rx="143.9218" ry="31.1844" style="stroke:#181818;stroke-width:0.5;"/><text fill="#000000" font-family="sans-serif" font-size="14" lengthAdjust="spacing" textLength="269.8076" x="318.018" y="332.8328">&#1059;&#1087;&#1088;&#1072;&#1074;&#1083;&#1077;&#1085;&#1080;&#1077; &#1088;&#1072;&#1079;&#1076;&#1077;&#1083;&#1072;&#1084;&#1080; &#1073;&#1072;&#1079;&#1099; &#1079;&#1085;&#1072;&#1085;&#1080;&#1081;</text></g><!--entity Admin--><g class="entity" data-qualified-name="Admin" data-source-line="27" id="ent0002"><ellipse cx="89.5474" cy="240.7969" fill="#F4A261" rx="16" ry="16" style="stroke:#9C4A00;stroke-width:0.5;"/><path d="M89.5474,260.7969 C93.5474,260.7969 96.5474,260.7969 100.5474,256.7969 C108.5474,256.7969 116.5474,264.7969 116.5474,272.7969 L116.5474,276.7969 C116.5474,280.7969 112.5474,284.7969 108.5474,284.7969 L70.5474,284.7969 C66.5474,284.7969 62.5474,280.7969 62.5474,276.7969 L62.5474,272.7969 C62.5474,264.7969 70.5474,256.7969 78.5474,256.7969 C82.5474,260.7969 85.5474,260.7969 89.5474,260.7969" fill="#F4A261" style="stroke:#9C4A00;stroke-width:0.5;"/><text fill="#1F1F1F" font-family="sans-serif" font-size="14" lengthAdjust="spacing" textLength="116.0947" x="31.5" y="298.292">&#1040;&#1076;&#1084;&#1080;&#1085;&#1080;&#1089;&#1090;&#1088;&#1072;&#1090;&#1086;&#1088;</text><text fill="#1F1F1F" font-family="sans-serif" font-size="14" font-style="italic" lengthAdjust="spacing" textLength="62.1455" x="58.4746" y="220.9951">&#171;Admin&#187;</text></g><!--entity Manager--><g class="entity" data-qualified-name="Manager" data-source-line="28" id="ent0003"><ellipse cx="89.3237" cy="591.7969" fill="#2A9D8F" rx="16" ry="16" style="stroke:#0B5D56;stroke-width:0.5;"/><path d="M89.3237,611.7969 C93.3237,611.7969 96.3237,611.7969 100.3237,607.7969 C108.3237,607.7969 116.3237,615.7969 116.3237,623.7969 L116.3237,627.7969 C116.3237,631.7969 112.3237,635.7969 108.3237,635.7969 L70.3237,635.7969 C66.3237,635.7969 62.3237,631.7969 62.3237,627.7969 L62.3237,623.7969 C62.3237,615.7969 70.3237,607.7969 78.3237,607.7969 C82.3237,611.7969 85.3237,611.7969 89.3237,611.7969" fill="#2A9D8F" style="stroke:#0B5D56;stroke-width:0.5;"/><text fill="#FFFFFF" font-family="sans-serif" font-size="14" lengthAdjust="spacing" textLength="78.251" x="50.1982" y="649.292">&#1052;&#1077;&#1085;&#1077;&#1076;&#1078;&#1077;&#1088;</text><text fill="#FFFFFF" font-family="sans-serif" font-size="14" font-style="italic" lengthAdjust="spacing" textLength="78.6475" x="50" y="571.9951">&#171;Manager&#187;</text></g><!--entity Finance--><g class="entity" data-qualified-name="Finance" data-source-line="29" id="ent0004"><ellipse cx="89.7471" cy="56.7969" fill="#457B9D" rx="16" ry="16" style="stroke:#1D3557;stroke-width:0.5;"/><path d="M89.7471,76.7969 C93.7471,76.7969 96.7471,76.7969 100.7471,72.7969 C108.7471,72.7969 116.7471,80.7969 116.7471,88.7969 L116.7471,92.7969 C116.7471,96.7969 112.7471,100.7969 108.7471,100.7969 L70.7471,100.7969 C66.7471,100.7969 62.7471,96.7969 62.7471,92.7969 L62.7471,88.7969 C62.7471,80.7969 70.7471,72.7969 78.7471,72.7969 C82.7471,76.7969 85.7471,76.7969 89.7471,76.7969" fill="#457B9D" style="stroke:#1D3557;stroke-width:0.5;"/><text fill="#FFFFFF" font-family="sans-serif" font-size="14" lengthAdjust="spacing" textLength="167.4941" x="6" y="114.292">&#1060;&#1080;&#1085;&#1072;&#1085;&#1089;&#1086;&#1074;&#1099;&#1081; &#1076;&#1080;&#1088;&#1077;&#1082;&#1090;&#1086;&#1088;</text><text fill="#FFFFFF" font-family="sans-serif" font-size="14" font-style="italic" lengthAdjust="spacing" textLength="71.8594" x="53.8174" y="36.9951">&#171;Finance&#187;</text></g><!--entity Redactor--><g class="entity" data-qualified-name="Redactor" data-source-line="30" id="ent0005"><ellipse cx="89.2979" cy="387.7969" fill="#E76F51" rx="16" ry="16" style="stroke:#9B2226;stroke-width:0.5;"/><path d="M89.2979,407.7969 C93.2979,407.7969 96.2979,407.7969 100.2979,403.7969 C108.2979,403.7969 116.2979,411.7969 116.2979,419.7969 L116.2979,423.7969 C116.2979,427.7969 112.2979,431.7969 108.2979,431.7969 L70.2979,431.7969 C66.2979,431.7969 62.2979,427.7969 62.2979,423.7969 L62.2979,419.7969 C62.2979,411.7969 70.2979,403.7969 78.2979,403.7969 C82.2979,407.7969 85.2979,407.7969 89.2979,407.7969" fill="#E76F51" style="stroke:#9B2226;stroke-width:0.5;"/><text fill="#FFFFFF" font-family="sans-serif" font-size="14" lengthAdjust="spacing" textLength="69.3779" x="54.6089" y="445.292">&#1056;&#1077;&#1076;&#1072;&#1082;&#1090;&#1086;&#1088;</text><text fill="#FFFFFF" font-family="sans-serif" font-size="14" font-style="italic" lengthAdjust="spacing" textLength="80.5957" x="49" y="367.9951">&#171;Redactor&#187;</text></g><!--link Admin to UC_Users--><g class="link" data-entity-1="ent0002" data-entity-2="ent0007" data-link-type="dependency" data-source-line="44" id="lnk16"><path d="M147.78,251.99 C198.85,249.31 269.1083,245.6148 332.4983,242.2848" fill="none" id="Admin-to-UC_Users" style="stroke:#F4A261;stroke-width:1;"/><polygon fill="#F4A261" points="338.49,241.97,329.2926,238.4476,333.4969,242.2323,329.7122,246.4366,338.49,241.97" style="stroke:#F4A261;stroke-width:1;"/></g><!--link Admin to UC_Refs--><g class="link" data-entity-1="ent0002" data-entity-2="ent0008" data-link-type="dependency" data-source-line="45" id="lnk17"><path d="M147.82,233.42 C183.74,220.37 231.19,204 274,192 C307.97,182.48 340.2359,175.0826 372.4759,168.3726" fill="none" id="Admin-to-UC_Refs" style="stroke:#F4A261;stroke-width:1;"/><polygon fill="#F4A261" points="378.35,167.15,368.7238,165.0678,373.4549,168.1688,370.3539,172.8999,378.35,167.15" style="stroke:#F4A261;stroke-width:1;"/></g><!--link Admin to UC_Fin--><g class="link" data-entity-1="ent0002" data-entity-2="ent0013" data-link-type="dependency" data-source-line="46" id="lnk18"><path d="M139.62,207.73 C174.54,176.58 223.96,137.2 274,113 C299.36,100.73 322.628,93.0998 349.848,86.5198" fill="none" id="Admin-to-UC_Fin" style="stroke:#F4A261;stroke-width:1;"/><polygon fill="#F4A261" points="355.68,85.11,345.9921,83.3367,350.82,86.2848,347.8718,91.1127,355.68,85.11" style="stroke:#F4A261;stroke-width:1;"/></g><!--link Admin to UC_NewsEdit--><g class="link" data-entity-1="ent0002" data-entity-2="ent0014" data-link-type="dependency" data-source-line="47" id="lnk19"><path d="M147.69,300.66 C182.41,326.29 228.65,356.86 274,376 C305.19,389.16 335.505,397.0122 367.095,403.0022" fill="none" id="Admin-to-UC_NewsEdit" style="stroke:#F4A261;stroke-width:1;"/><polygon fill="#F4A261" points="372.99,404.12,364.8927,398.5133,368.0775,403.1885,363.4024,406.3733,372.99,404.12" style="stroke:#F4A261;stroke-width:1;"/></g><!--link Admin to UC_KBCat--><g class="link" data-entity-1="ent0002" data-entity-2="ent0015" data-link-type="dependency" data-source-line="48" id="lnk20"><path d="M147.78,266.57 C201.24,277.36 276.4088,292.542 341.4088,305.672" fill="none" id="Admin-to-UC_KBCat" style="stroke:#F4A261;stroke-width:1;"/><polygon fill="#F4A261" points="347.29,306.86,339.2602,301.1572,342.389,305.87,337.6762,308.9988,347.29,306.86" style="stroke:#F4A261;stroke-width:1;"/></g><!--link Manager to UC_Users--><g class="link" data-entity-1="ent0003" data-entity-2="ent0007" data-link-type="dependency" data-source-line="50" id="lnk21"><path d="M130.15,576.36 C151.61,560.41 178.65,540.48 203,523 C230.74,503.08 249.61,508.96 266,479 C276.67,459.49 259.9,296.2 274,279 C290.03,259.46 307.4802,249.4843 331.9002,242.8443" fill="none" id="Manager-to-UC_Users" style="stroke:#2A9D8F;stroke-width:1;"/><polygon fill="#2A9D8F" points="337.69,241.27,327.9558,239.7716,332.8652,242.5819,330.0548,247.4913,337.69,241.27" style="stroke:#2A9D8F;stroke-width:1;"/></g><!--link Manager to UC_Refs--><g class="link" data-entity-1="ent0003" data-entity-2="ent0008" data-link-type="dependency" data-source-line="51" id="lnk22"><path d="M121.01,558.83 C137.55,532.19 157.67,497.92 173,466 C223.41,361.01 229.81,331.7 266,221 C270.15,208.29 264.3,201.2 274,192 C295.93,171.22 320.3633,161.564 349.7833,156.314" fill="none" id="Manager-to-UC_Refs" style="stroke:#2A9D8F;stroke-width:1;"/><polygon fill="#2A9D8F" points="355.69,155.26,346.1273,152.9033,350.7678,156.1384,347.5327,160.7789,355.69,155.26" style="stroke:#2A9D8F;stroke-width:1;"/></g><!--link Manager to UC_Calc--><g class="link" data-entity-1="ent0003" data-entity-2="ent0009" data-link-type="dependency" data-source-line="52" id="lnk23"><path d="M130.03,617.6 C151.47,623.53 178.51,630.44 203,635 C257.44,645.14 313.3182,651.7792 361.7482,656.4892" fill="none" id="Manager-to-UC_Calc" style="stroke:#2A9D8F;stroke-width:1;"/><polygon fill="#2A9D8F" points="367.72,657.07,359.1495,652.2176,362.7435,656.586,358.3751,660.18,367.72,657.07" style="stroke:#2A9D8F;stroke-width:1;"/></g><!--link Manager to UC_Draft--><g class="link" data-entity-1="ent0003" data-entity-2="ent0010" data-link-type="dependency" data-source-line="53" id="lnk24"><path d="M130.1,628.96 C166.7,649.63 222.97,680.06 274,702 C308.21,716.71 341.5445,728.5634 374.3345,739.2334" fill="none" id="Manager-to-UC_Draft" style="stroke:#2A9D8F;stroke-width:1;"/><polygon fill="#2A9D8F" points="380.04,741.09,372.7194,734.5014,375.2854,739.5428,370.244,742.1088,380.04,741.09" style="stroke:#2A9D8F;stroke-width:1;"/></g><!--link Manager to UC_Report--><g class="link" data-entity-1="ent0003" data-entity-2="ent0011" data-link-type="dependency" data-source-line="54" id="lnk25"><path d="M130.17,613.14 C169.83,617.81 229.95,617.83 266,584 C279.86,571 260.93,555.8 274,542 C290.86,524.21 307.912,514.7822 331.582,508.0022" fill="none" id="Manager-to-UC_Report" style="stroke:#2A9D8F;stroke-width:1;"/><polygon fill="#2A9D8F" points="337.35,506.35,327.5965,504.9829,332.5433,507.7268,329.7994,512.6736,337.35,506.35" style="stroke:#2A9D8F;stroke-width:1;"/></g><!--link Manager to UC_History--><g class="link" data-entity-1="ent0003" data-entity-2="ent0012" data-link-type="dependency" data-source-line="55" id="lnk26"><path d="M130.12,614.36 C151.58,618.46 178.62,622.96 203,625 C230.9,627.34 238.16,628.03 266,625 C305.12,620.74 342.2348,613.0179 376.9948,604.4379" fill="none" id="Manager-to-UC_History" style="stroke:#2A9D8F;stroke-width:1;"/><polygon fill="#2A9D8F" points="382.82,603,373.1237,601.2733,377.9657,604.1982,375.0408,609.0402,382.82,603" style="stroke:#2A9D8F;stroke-width:1;"/></g><!--link Manager to UC_KBCat--><g class="link" data-entity-1="ent0003" data-entity-2="ent0015" data-link-type="dependency" data-source-line="56" id="lnk27"><path d="M130.25,597.13 C176.76,585.88 249.54,565.25 266,543 C288.1,513.13 250.71,404.94 274,376 C286.84,360.04 298.8045,351.2515 317.8945,343.7615" fill="none" id="Manager-to-UC_KBCat" style="stroke:#2A9D8F;stroke-width:1;"/><polygon fill="#2A9D8F" points="323.48,341.57,313.6408,341.1336,318.8254,343.3962,316.5628,348.5809,323.48,341.57" style="stroke:#2A9D8F;stroke-width:1;"/></g><!--link Finance to UC_Users--><g class="link" data-entity-1="ent0004" data-entity-2="ent0007" data-link-type="dependency" data-source-line="58" id="lnk28"><path d="M173.15,70.9 C206.75,75.34 243.01,86.7 266,113 C289.23,139.57 250.87,165.35 274,192 C290.69,211.23 308.5429,221.1557 333.1629,227.8957" fill="none" id="Finance-to-UC_Users" style="stroke:#457B9D;stroke-width:1;"/><polygon fill="#457B9D" points="338.95,229.48,331.3256,223.2455,334.1274,228.1598,329.2132,230.9616,338.95,229.48" style="stroke:#457B9D;stroke-width:1;"/></g><!--link Finance to UC_Refs--><g class="link" data-entity-1="ent0004" data-entity-2="ent0008" data-link-type="dependency" data-source-line="59" id="lnk29"><path d="M173.24,50.57 C205.47,47.55 240.66,51.01 266,72 C280.3,83.85 261.06,99.69 274,113 C295.3,134.92 319.9328,144.9387 349.7128,150.2387" fill="none" id="Finance-to-UC_Refs" style="stroke:#457B9D;stroke-width:1;"/><polygon fill="#457B9D" points="355.62,151.29,347.4601,145.7749,350.6974,150.4139,346.0584,153.6512,355.62,151.29" style="stroke:#457B9D;stroke-width:1;"/></g><!--link Finance to UC_Fin--><g class="link" data-entity-1="ent0004" data-entity-2="ent0013" data-link-type="dependency" data-source-line="60" id="lnk30"><path d="M173.2,38.04 C183.11,35.15 193.19,32.69 203,31 C264.41,20.41 328.8086,31.8116 378.9886,45.4016" fill="none" id="Finance-to-UC_Fin" style="stroke:#457B9D;stroke-width:1;"/><polygon fill="#457B9D" points="384.78,46.97,377.1386,40.7564,379.9539,45.663,375.0473,48.4782,384.78,46.97" style="stroke:#457B9D;stroke-width:1;"/></g><!--link Finance to UC_KBCat--><g class="link" data-entity-1="ent0004" data-entity-2="ent0015" data-link-type="dependency" data-source-line="61" id="lnk31"><path d="M144.78,118.08 C182.86,153.45 232.72,204.77 266,258 C271.3,266.47 266.61,272.28 274,279 C290.13,293.66 304.5837,302.017 325.4337,309.277" fill="none" id="Finance-to-UC_KBCat" style="stroke:#457B9D;stroke-width:1;"/><polygon fill="#457B9D" points="331.1,311.25,323.9159,304.5129,326.3781,309.6058,321.2852,312.068,331.1,311.25" style="stroke:#457B9D;stroke-width:1;"/></g><!--link Redactor to UC_NewsEdit--><g class="link" data-entity-1="ent0005" data-entity-2="ent0014" data-link-type="dependency" data-source-line="63" id="lnk32"><path d="M131.27,403.47 C186.48,405.45 280.5939,408.8345 354.3239,411.4845" fill="none" id="Redactor-to-UC_NewsEdit" style="stroke:#E76F51;stroke-width:1;"/><polygon fill="#E76F51" points="360.32,411.7,351.4695,407.3793,355.3232,411.5204,351.1821,415.3742,360.32,411.7" style="stroke:#E76F51;stroke-width:1;"/></g><!--link Redactor to UC_KBCat--><g class="link" data-entity-1="ent0005" data-entity-2="ent0015" data-link-type="dependency" data-source-line="64" id="lnk33"><path d="M131.27,393.66 C183.43,382.98 269.7918,365.293 342.0118,350.513" fill="none" id="Redactor-to-UC_KBCat" style="stroke:#E76F51;stroke-width:1;"/><polygon fill="#E76F51" points="347.89,349.31,338.2708,347.1957,342.9915,350.3125,339.8747,355.0332,347.89,349.31" style="stroke:#E76F51;stroke-width:1;"/></g><!--link UC_Calc to UC_Draft--><g class="link" data-entity-1="ent0009" data-entity-2="ent0010" data-link-type="dependency" data-source-line="66" id="lnk34"><path d="M453,684.74 C453,699.62 453,713.8 453,729.95" fill="none" id="UC_Calc-to-UC_Draft" style="stroke:#181818;stroke-width:1;stroke-dasharray:7,7;"/><polygon fill="#181818" points="453,735.95,457,726.95,453,730.95,449,726.95,453,735.95" style="stroke:#181818;stroke-width:1;"/><text fill="#000000" font-family="sans-serif" font-size="13" lengthAdjust="spacing" textLength="61.1851" x="411" y="714.8169">&#171;extend&#187;</text></g><!--link UC_Calc to UC_Report--><g class="link" data-entity-1="ent0009" data-entity-2="ent0011" data-link-type="dependency" data-source-line="67" id="lnk35"><path d="M362.74,661.64 C331.74,656.76 298.67,646.51 274,626 C237.31,595.49 207.4,560.25 239,524.5 C266.21,493.71 303.4205,484.5285 343.9105,483.9985" fill="none" id="UC_Calc-to-UC_Report" style="stroke:#181818;stroke-width:1;stroke-dasharray:7,7;"/><polygon fill="#181818" points="349.91,483.92,340.8584,480.0381,344.9104,483.9854,340.9631,488.0375,349.91,483.92" style="stroke:#181818;stroke-width:1;"/><text fill="#000000" font-family="sans-serif" font-size="13" lengthAdjust="spacing" textLength="61.1851" x="204" y="537.5669">&#171;extend&#187;</text></g><?plantuml-src ZLJRRjD047ttLupASr4RcfQWgb8kjP0GF1Jr2I6qYZUfrTIkR5UbGaZfbOSW5V6C11LyG0g4fasQ_iBk7p4xNhkscwKaKYvxPiwPEJFU3cz54FaGkEsD21mtuCt8zJqht7IzRHQmBM3Do0zUHdiT3coNX_uMpu3RhBd9sZo6LIxpsfriGBZ177_NzThGOfsGMqNYvUMgi-LwAolmpWAe8Lqxy7Syf-vt_00Us0lLqkAyGlp0uO4-hTGNgdDpU6hxNgJFvctrjjxV5NZEF2mnC4cKgfN6OxieCLShDygBUGcRNjCaRDTZNfER91RAIxLAeoWnttXKBY_zhyGQT-YNIMDrQT4kttMgLYgLJ6rOH0WpufFuBSPYAAx5KExB0zaLVNaW9h8x0om46X2aWqgpleW1PWmmzuyOw5ZjDMHSJ-D_a49VNCjzCH4_PKzS0YOFKMuWhZA2sat8-9gIV2F1VYu-iGQoBbbMkewOTYPkiCOJhA0lHlXvGR9OXQe7A-g90SWZUOX_hYXi25WbkO62OzcR8TTtGjvaeIByBcwKJKWm8Xk6I80Q4p6I7v6Tc2bt94-LjrJeUltDUiY3CCVqcJfAE50r8Px83tHufTYI_3NUAgHZxQHBiz0aQe3xc3x04lf9QfrrchdKCvGu9h5CgahguX_LWTBk0qOT5BaQ0Mj5zvAXWJWbyOl8w7igsHhVzeCysrSr7VHYJF5TqAF0YTDiCYmPRvww8Ov-xr_k7XLtK1uRo73r2XKTYdFQ7VH4hOWy1MtJHA_9PPBxWk-6guuRtRinT7111OxmrrYrTgwEP0_md2h5m9JuMQtE8lNani_ax2jzGRwUNRbThkaOBSvqIBKw7KaRcGx7vLZ9GuzmV9dcoZ6XL909f5qrWV7ocNbfcqnmiYGcNFUKt448nxTthYSJIZsPG6Mp2TEgwKs6U7oX5mTXZD0CsZjuUEiKFC6BaR-DkEVWjPWFYCtAHVm5?></g></svg>